<svg width="49" height="91" viewBox="0 0 49 91" fill="none" xmlns="http://www.w3.org/2000/svg">
<g clip-path="url(#clip0_571_22472)">
<path d="M48.6199 86.632C48.4623 86.5789 48.287 86.5658 48.1016 86.5512C46.569 86.435 44.9225 86.298 43.2661 86.0832C42.7647 86.0178 42.2625 85.9417 41.7719 85.8562L40.9721 85.7038L40.3584 85.5684C40.3177 85.5591 40.2761 85.5499 40.2323 85.5407C40.1539 85.5237 40.08 85.5076 40.007 85.4891C40.007 85.4891 39.5371 85.3706 39.4756 85.3552C39.3395 85.3213 39.1995 85.2859 39.0626 85.2482L38.9819 85.2259L38.9442 85.1543C38.8335 84.9457 38.7243 84.7349 38.6189 84.5271C38.5636 84.4201 38.5097 84.307 38.4574 84.1969L38.4421 84.1654C38.2344 83.7251 38.3951 83.2787 38.5366 82.8847C38.5828 82.7569 38.6258 82.6369 38.6558 82.5207C38.7927 81.9989 38.8881 81.4455 38.9396 80.8745C39.0342 79.837 38.9881 78.7187 38.8019 77.5497C38.6097 76.3406 38.3059 75.3524 37.8737 74.5297C37.6031 74.0148 37.3231 73.6169 37.0186 73.3145C36.9271 73.2236 36.8317 73.1359 36.731 73.0436C36.4434 72.7803 36.1465 72.5079 35.9497 72.1508C35.9158 72.09 35.842 71.9876 35.7205 71.9876C35.6913 71.9876 35.6605 71.9938 35.6305 72.0061C35.5175 72.05 35.4106 72.1785 35.3283 72.3671C35.2368 72.5795 35.1291 72.8096 35.0146 73.0536C34.7623 73.5908 34.4762 74.2003 34.2348 74.8968C34.1894 75.0284 34.1463 75.16 34.1087 75.2878C34.0687 75.4209 34.0325 75.5541 33.9979 75.6934C33.9264 75.9835 33.871 76.2744 33.8334 76.5576C33.7465 77.2034 33.7549 77.8398 33.8572 78.5017C33.9195 78.8696 34.0118 79.2436 34.1317 79.613C34.2509 79.9594 34.3932 80.298 34.5547 80.6212C34.6339 80.7736 34.72 80.9283 34.8108 81.0807C34.8546 81.1538 34.9 81.2285 34.9461 81.3016C34.9953 81.3793 35.0399 81.4486 35.0876 81.5155C35.1799 81.6472 35.2783 81.7811 35.3814 81.9142C35.4306 81.9781 35.4813 82.042 35.5321 82.1043L35.6082 82.1967C35.629 82.2205 35.6498 82.2444 35.6705 82.2682L35.6859 82.2859C35.9043 82.5299 36.1119 82.7462 36.3042 82.9278C36.4941 83.1025 36.6933 83.2734 36.8963 83.4381C36.9463 83.4796 36.9955 83.5166 37.0371 83.5466L37.1709 83.6443C37.2539 83.7043 37.3377 83.7628 37.4208 83.8198C37.5285 83.8929 37.6538 83.9776 37.7638 84.0438L37.8138 84.0738L37.8376 84.1246C37.9114 84.2831 37.9876 84.4424 38.0637 84.6002L38.2713 85.025L37.8438 84.8888C37.1363 84.6641 36.4372 84.4162 35.7643 84.1538C34.9084 83.8121 34.0541 83.4304 33.2235 83.0194C32.4314 82.623 31.6147 82.1705 30.7934 81.6733L30.2028 81.3047C30.1406 81.267 30.079 81.2262 30.0137 81.1823C29.9806 81.16 29.9468 81.1377 29.9137 81.1161L29.5153 80.8529C29.4531 80.8121 29.3938 80.7729 29.3354 80.7328L28.6233 80.2334L28.5072 80.1472L28.4987 80.0702C28.4879 79.9732 28.4672 79.8562 28.4449 79.7323C28.368 79.3013 28.2818 78.8126 28.4518 78.464C28.5202 78.3232 28.6148 78.2054 28.7056 78.0907C28.7325 78.0569 28.7602 78.0222 28.7863 77.9876C29.0386 77.6559 29.3846 77.201 29.5561 76.7739C30.2759 74.9876 30.675 73.5023 30.8504 71.9568C30.958 71.0125 30.948 70.099 30.8211 69.2424C30.7535 68.7868 30.6519 68.3435 30.5197 67.9256C30.4705 67.7701 30.3943 67.5985 30.3136 67.4161C30.1959 67.1498 30.0736 66.8743 30.0221 66.6157C29.976 66.3833 29.826 66.3586 29.7637 66.3586C29.6376 66.3586 29.4907 66.4471 29.35 66.608C29.1539 66.8319 28.9509 67.0567 28.7548 67.2729C27.9143 68.2026 27.1199 69.0808 26.5916 70.1813C25.6641 72.1146 25.681 74.4804 26.6392 76.6715C26.6692 76.74 26.6992 76.807 26.7292 76.8724C26.753 76.9248 26.7777 76.9732 26.8015 77.0202L26.8238 77.0648C26.9453 77.3034 27.0722 77.5335 27.2014 77.7506C27.316 77.9337 27.4352 78.1146 27.5574 78.2878C27.609 78.3616 27.6612 78.4332 27.712 78.5032C27.7412 78.541 27.7705 78.5779 27.7997 78.6148L27.835 78.6587L27.8389 78.7133C27.8504 78.8873 27.8635 79.0635 27.8773 79.239L27.915 79.7116L27.5628 79.4368C24.892 77.3519 22.4819 74.8437 20.4002 71.9807L20.3541 71.9176L20.3695 71.8422C20.4179 71.6051 20.4717 71.3704 20.5217 71.1526C20.5763 70.9148 20.634 70.6747 20.6917 70.4384C20.7232 70.3106 20.8532 70.1952 21.0339 70.0451C21.0754 70.0105 21.1154 69.9781 21.1346 69.9581C21.1662 69.9266 21.1977 69.8958 21.2315 69.8666C22.2428 68.9807 23.0572 68.1888 23.7416 67.2006C24.4152 66.2278 24.9712 65.1457 25.3934 63.9843C25.7326 63.0523 25.8979 62.2889 25.9141 61.5839C25.9225 61.2168 25.8741 60.8566 25.8233 60.4756C25.7664 60.05 25.7072 59.6106 25.7356 59.165C25.7449 59.0211 25.698 58.9402 25.6572 58.8979C25.6095 58.8487 25.5418 58.8225 25.4626 58.8225C25.3511 58.8225 25.2235 58.8702 25.0835 58.9641C24.8697 59.1088 24.6275 59.2596 24.3706 59.4197L24.3376 59.4405C24.2299 59.5075 24.1192 59.5767 24.0061 59.6483C23.6285 59.8869 23.1833 60.177 22.7396 60.5203C22.2466 60.902 21.8283 61.2907 21.4599 61.7101C21.2515 61.9464 21.06 62.1957 20.8755 62.4713C20.6771 62.7691 20.5048 63.0708 20.3625 63.3694C20.198 63.7181 20.0549 64.0859 19.938 64.4607C19.8342 64.8078 19.7496 65.1734 19.6866 65.5451C19.6343 65.8792 19.6005 66.2224 19.5828 66.5934C19.572 66.8951 19.5766 67.2175 19.5974 67.5762C19.6389 68.1534 19.7281 68.7252 19.8558 69.2316C19.9188 69.491 19.9734 69.6888 20.0296 69.855C20.0719 69.9858 20.1165 70.1151 20.1618 70.2391L20.1803 70.2898L20.1664 70.3422C20.1234 70.5076 20.0788 70.6885 20.0303 70.8955L19.9296 71.3265L19.6766 70.9556C17.7633 68.1465 16.1814 65.0672 14.9733 61.8032L14.9464 61.7309L15.1202 61.3961C15.1594 61.3207 15.1986 61.236 15.2394 61.1475C15.397 60.8081 15.5762 60.4241 15.8638 60.2078C15.9953 60.1085 16.1476 60.0539 16.2822 60.0054L16.3006 59.9985C17.2996 59.636 18.2224 59.1504 19.0429 58.5539C19.8934 57.9359 20.6417 57.2063 21.2646 56.3866C21.9029 55.5478 22.4089 54.6165 22.7688 53.6191C22.9472 53.125 23.0887 52.6147 23.1894 52.1037C23.2263 51.9151 23.2517 51.7174 23.2763 51.5265C23.3163 51.2132 23.3579 50.8885 23.454 50.5737C23.5301 50.322 23.3894 50.222 23.3432 50.1966C23.2933 50.1689 23.2317 50.155 23.1602 50.155C23.0733 50.155 22.9741 50.1758 22.8657 50.2166C22.6204 50.3089 22.3466 50.4005 22.0551 50.4975C21.4991 50.683 20.8693 50.8931 20.2087 51.1879C19.9357 51.3102 19.6843 51.4349 19.4405 51.5696C19.1721 51.7181 18.9137 51.8805 18.6715 52.0506C18.4062 52.2368 18.1501 52.4408 17.9125 52.6563C17.6633 52.8826 17.428 53.1288 17.1934 53.4113C17.0658 53.5652 16.9412 53.7261 16.8258 53.8869C16.7159 54.0439 16.6082 54.2078 16.5075 54.3741C16.4098 54.5349 16.3152 54.7012 16.226 54.8705C16.1837 54.949 16.143 55.0313 16.1007 55.1214C16.0615 55.2037 16.0238 55.2876 15.9869 55.3715C15.7208 55.9711 15.5139 56.6298 15.374 57.3279C15.3186 57.6203 15.2724 57.919 15.2386 58.2176C15.214 58.4762 15.1971 58.7386 15.1886 58.9995C15.1786 59.2381 15.1848 59.452 15.1925 59.6483C15.1978 59.7876 15.2063 59.9246 15.2163 60.0554L15.2201 60.1093L15.1932 60.1562C15.1117 60.2986 15.0325 60.4418 14.9564 60.5803L14.7011 61.0498L14.5157 60.518L14.3043 59.8669L14.1981 59.539L13.9028 58.5539C13.9028 58.5539 13.699 57.8151 13.6875 57.7758C13.6675 57.7027 13.6483 57.6342 13.6306 57.5642L13.4853 56.99C13.4499 56.8507 13.413 56.7068 13.3799 56.5667L13.1969 55.771C13.1807 55.7001 13.1646 55.6324 13.1515 55.5639L13.0323 54.9882C13.0023 54.8466 12.9723 54.6996 12.9446 54.5565L12.7978 53.7599C12.7839 53.686 12.7708 53.616 12.7601 53.5452L12.6639 52.9487C12.6416 52.811 12.6186 52.6694 12.5978 52.5308C12.5978 52.5308 12.4925 51.7712 12.4863 51.7304C12.4755 51.655 12.4655 51.5842 12.4571 51.5126L12.3871 50.9131C12.3748 50.8069 12.3617 50.7007 12.3502 50.5945L12.3417 50.5183L12.3933 50.459C12.5455 50.2835 12.7009 50.1073 12.8539 49.9341L13.1269 49.6286C13.1992 49.5486 13.2676 49.4716 13.3391 49.3946C13.443 49.2823 13.6075 49.2692 13.7221 49.2692C13.7636 49.2692 13.8052 49.2715 13.8436 49.273C13.8705 49.2746 13.8951 49.2753 13.9159 49.2753H13.9267C14.0835 49.27 14.2358 49.2346 14.3981 49.1968L14.4404 49.1868C14.9664 49.0652 15.5762 48.919 16.1476 48.7143C16.9166 48.4388 17.7118 48.0278 18.5792 47.4567C19.9404 46.5609 20.9239 45.6327 21.5876 44.6184C21.9252 44.1019 22.2259 43.4932 22.5327 42.7028C22.5858 42.5666 22.635 42.4219 22.6819 42.2833C22.7503 42.0817 22.8218 41.8731 22.9095 41.6723C22.9264 41.6338 22.9449 41.5953 22.9633 41.556C23.0825 41.3059 23.1164 41.2005 22.9933 41.0866C22.9457 41.0419 22.8518 40.9888 22.6803 40.9888C22.6342 40.9888 22.5835 40.9927 22.5312 41.0004C22.2735 41.0396 21.9875 41.0712 21.6822 41.1043C21.1146 41.1666 20.4717 41.2374 19.7819 41.3829C19.1852 41.5099 18.643 41.6776 18.1247 41.8978C17.8179 42.0286 17.5287 42.1725 17.2642 42.3272C16.9697 42.4996 16.6813 42.6959 16.4075 42.9098C16.3291 42.9714 16.2506 43.0353 16.173 43.0999L16.0638 43.193L15.9499 43.2954C15.8092 43.4247 15.6693 43.5617 15.5347 43.7025C15.4055 43.8372 15.2763 43.9804 15.1525 44.1266C15.021 44.282 14.9056 44.4344 14.811 44.563C14.4196 45.0886 14.0797 45.6697 13.7736 46.3377C13.6544 46.6078 13.5422 46.8887 13.4399 47.1735C13.3899 47.3082 13.3491 47.4436 13.3122 47.5637C13.2761 47.6838 13.2407 47.8061 13.2084 47.9262C13.0915 48.3433 13.0308 48.6843 12.9869 48.9629L12.9785 49.016L12.9408 49.056C12.8254 49.1807 12.7047 49.3123 12.5863 49.4424L12.2733 49.7964L12.2364 49.3461C12.1072 47.7769 12.0564 46.1291 12.0857 44.4483L12.0872 44.3259C12.088 44.2528 12.0887 44.1797 12.091 44.1066L12.1279 43.0768L12.1864 42.0517C12.1902 41.9801 12.1956 41.9093 12.2025 41.8308C12.2056 41.7908 12.2095 41.7508 12.2118 41.7107C12.271 40.8765 12.3571 40.0176 12.4732 39.0833L12.4825 39.0086L12.5455 38.9617C12.7278 38.8247 12.9131 38.6877 13.0954 38.553C13.2792 38.4175 13.4699 38.2821 13.6544 38.1512L13.6814 38.132C13.7721 38.0727 13.9021 38.0489 14.1297 38.0489C14.1935 38.0489 14.2581 38.0504 14.3173 38.0527C14.365 38.0543 14.4096 38.055 14.4481 38.055C14.4665 38.055 14.4834 38.055 14.4973 38.0535C14.7895 38.0335 15.0325 38.015 15.2609 37.9958C15.8115 37.9488 16.2937 37.895 16.7366 37.8311C18.3931 37.5917 21.4384 36.8514 23.2179 34.5887C23.4524 34.2908 23.6616 33.9637 23.8639 33.6474C23.9615 33.4943 24.06 33.3411 24.1607 33.1903C24.2145 33.1102 24.2937 33.0171 24.3768 32.9194C24.5621 32.7023 24.842 32.3745 24.8097 32.1713C24.8036 32.1336 24.7844 32.0759 24.6867 32.0135C24.6206 31.9712 24.5421 31.9435 24.4529 31.9327C23.4324 31.8034 22.5127 31.6964 21.5968 31.6964C20.9778 31.6964 20.4241 31.7457 19.9042 31.8465C18.6023 32.0997 17.3419 32.7216 16.2599 33.6459C15.2655 34.4948 14.4334 35.5784 13.7875 36.8667C13.7621 36.9175 13.7367 36.9691 13.7121 37.0199C13.5329 37.3878 13.3484 37.768 12.9477 38.0065L12.6209 38.2013L12.6501 37.8372C12.6947 37.28 12.8108 36.7159 12.9231 36.1702C12.9546 36.0171 12.9862 35.8639 13.0162 35.7115L13.1523 35.0381L13.2999 34.3685C13.3261 34.2469 13.3545 34.1269 13.3768 34.0353L13.4853 33.5805C13.5022 33.5097 13.5191 33.4381 13.5368 33.368L13.6221 33.0348C14.0559 31.3255 14.6019 29.5954 15.2448 27.8937L15.2717 27.8229L15.3432 27.7898C15.5462 27.6967 15.7515 27.6044 15.9546 27.5143C16.1614 27.422 16.3752 27.3311 16.5828 27.2434L16.6474 27.2165L16.7059 27.2257C17.6941 27.3827 18.6892 27.4627 19.6658 27.4627C21.2469 27.4627 22.7096 27.2565 24.0138 26.8501C24.9805 26.5484 25.8987 26.1105 26.7446 25.5487C27.1645 25.2693 27.5659 24.9592 27.9381 24.6259C27.9996 24.5705 28.075 24.5151 28.1542 24.4558C28.3687 24.2958 28.6364 24.0964 28.611 23.9156C28.5994 23.8363 28.5372 23.6901 28.2426 23.5954C28.0119 23.5223 27.7605 23.4307 27.4928 23.3337C26.9768 23.1459 26.3916 22.9335 25.7326 22.7704C25.1497 22.6272 24.6106 22.5472 24.0846 22.5256C23.9761 22.521 23.8692 22.5187 23.7654 22.5187C23.5586 22.5187 23.3532 22.5272 23.1548 22.5449C22.8242 22.5741 22.4873 22.6272 22.1551 22.7026C21.7752 22.7919 21.4023 22.9066 21.047 23.0428C20.8739 23.1105 20.7001 23.1844 20.5287 23.2629C20.441 23.3029 20.3564 23.343 20.2772 23.3822C20.1972 23.423 20.1157 23.4653 20.0357 23.5092C19.8796 23.5939 19.7227 23.6839 19.5689 23.777C19.4151 23.8709 19.2675 23.9702 19.1314 24.0633C19.0068 24.1495 18.8614 24.2526 18.7215 24.3604C18.5954 24.4589 18.4677 24.5613 18.3439 24.6659C17.9163 25.0261 17.511 25.4263 17.1381 25.8565C16.9735 26.0428 16.8366 26.2175 16.7251 26.363C16.6205 26.5007 16.5398 26.61 16.4783 26.6977L16.4475 26.7424L16.396 26.7639C16.2691 26.8178 16.1268 26.8786 15.9761 26.9432L15.5416 27.1303L15.7139 26.7101C16.9166 23.7739 18.4154 20.9725 20.1657 18.3874L20.221 18.3012C20.2457 18.2627 20.271 18.2234 20.2964 18.1857L20.6763 17.6162L20.757 17.6C20.9501 17.5616 21.1608 17.5215 21.4115 17.4746L21.5122 17.4561C21.6037 17.4392 21.6952 17.4223 21.7875 17.4061L22.1505 17.3453L22.2051 17.3684C24.4106 18.2989 26.4162 18.7806 28.3364 18.8407C28.4579 18.8445 28.5802 18.8461 28.7017 18.8461C29.6591 18.8461 30.5712 18.7268 31.4125 18.4913C31.8985 18.355 32.3584 18.1334 32.8029 17.9187C33.2058 17.724 33.6226 17.5231 34.0687 17.3792C34.1648 17.3484 34.324 17.2699 34.3155 17.0936C34.3094 16.972 34.2186 16.8489 34.0533 16.7388C33.8633 16.6142 33.6603 16.4679 33.4419 16.3109C33.0051 15.9977 32.5107 15.6421 31.9254 15.3104C31.4279 15.0318 30.9419 14.8179 30.4412 14.6578C29.8183 14.4631 29.2077 14.3599 28.5741 14.343C28.4972 14.3407 28.418 14.3392 28.3388 14.3392C28.0588 14.3392 27.762 14.3569 27.4313 14.3923C27.2406 14.4123 27.053 14.4446 26.8799 14.4754C26.7315 14.5031 26.5362 14.5408 26.3447 14.5901C25.9594 14.6886 25.6303 14.7909 25.3388 14.9018C25.1835 14.9595 25.0258 15.0226 24.869 15.088C24.7252 15.1511 24.5775 15.2188 24.4291 15.2912C23.9331 15.5305 23.4417 15.8191 22.9672 16.1485C22.7711 16.2817 22.6042 16.4125 22.455 16.5287L22.4412 16.5395C22.3105 16.6426 22.2051 16.7288 22.1182 16.8043L22.0767 16.8404L21.0946 17.0067L21.3538 16.6457C21.7299 16.1231 22.119 15.6044 22.5127 15.1034C23.0279 14.4515 23.5755 13.7989 24.1407 13.1647C25.2296 11.9387 26.4239 10.7543 27.6882 9.64524C27.8289 9.5221 28.1104 9.50979 28.5241 9.50594C28.621 9.50517 28.7217 9.5044 28.7656 9.49824C29.0339 9.46438 29.3092 9.41282 29.5753 9.36279L29.7437 9.33124C30.5758 9.17654 31.2079 9.04032 31.7939 8.8887C33.3304 8.49158 34.5547 7.97055 35.5375 7.29559C36.235 6.81611 36.9179 6.1858 37.6246 5.36769C37.8899 5.06138 38.1383 4.72659 38.3798 4.40335C38.6728 4.00931 38.9765 3.60218 39.3164 3.23276C39.4633 3.07268 39.5179 2.89874 39.4648 2.75559C39.4279 2.65554 39.3264 2.52779 39.0519 2.48623C38.845 2.4539 38.6228 2.41234 38.3874 2.3677C37.7415 2.24533 37.0094 2.10757 36.1604 2.08448C36.0927 2.08218 36.022 2.08064 35.9481 2.08064C35.8743 2.08064 35.7974 2.08218 35.7136 2.08448C35.5598 2.0891 35.4044 2.0968 35.2514 2.10911C35.0907 2.12066 34.9261 2.14374 34.7723 2.16529C34.6262 2.18761 34.4524 2.21532 34.2778 2.2538C33.8772 2.34462 33.5527 2.44005 33.2551 2.55395C33.1682 2.58628 33.0797 2.62091 32.9928 2.65631C32.8882 2.69864 32.8044 2.73481 32.7275 2.77176C32.5499 2.85487 32.3699 2.94569 32.1946 3.04035C31.4194 3.4698 30.6989 4.02393 30.0544 4.68811C29.9214 4.82664 29.7683 4.98827 29.6307 5.15142C29.5023 5.30381 29.3746 5.46235 29.2523 5.62166C29.1293 5.78251 29.0147 5.95029 28.917 6.09344C28.8655 6.16963 28.814 6.24813 28.764 6.3251C28.7202 6.39282 28.6802 6.46055 28.641 6.5252L28.6217 6.55752C28.5341 6.70529 28.448 6.85614 28.3664 7.00775C28.2834 7.16014 28.2088 7.31637 28.1488 7.44105C28.085 7.57496 28.0227 7.71272 27.9635 7.84741C27.9119 7.97055 27.862 8.09676 27.8135 8.22452C27.6882 8.55007 27.582 8.88024 27.4905 9.23426L27.4759 9.29199L27.4282 9.33047C25.4011 10.9636 23.4924 12.8322 21.7552 14.8856L21.4492 15.2473L21.4092 14.7863C21.3938 14.6062 21.3792 14.4284 21.3653 14.2553L21.3615 14.2052L21.3846 14.1606C21.4515 14.0329 21.5199 13.8959 21.5876 13.7558L21.7283 13.4587C21.7814 13.3479 21.8344 13.2348 21.8852 13.1216C21.9336 13.0154 21.9867 12.8954 22.0505 12.746C22.1105 12.6114 22.1705 12.4736 22.2274 12.3366C22.2612 12.2573 22.2943 12.175 22.3289 12.0873L22.3328 12.078C22.3574 12.0172 22.382 11.9556 22.4081 11.8933C22.4712 11.7386 22.5335 11.5801 22.5935 11.4208C23.0033 10.3294 23.5778 8.66321 23.8308 6.79303C23.8854 6.38974 23.9185 6.02571 23.9315 5.67861C23.9461 5.31227 23.9446 4.98211 23.9269 4.66887C23.9185 4.51187 23.9054 4.3541 23.8892 4.1994C23.8731 4.04163 23.8554 3.89617 23.8346 3.75456C23.7939 3.47981 23.7424 3.2089 23.6762 2.92722C23.5532 2.40542 23.4048 1.93518 23.2625 1.50419L23.2117 1.35103C23.0918 0.989313 22.9787 0.648371 22.9057 0.334366C22.8826 0.235854 22.8057 0.0057373 22.5811 0.0057373C22.4273 0.0057373 22.252 0.12118 22.0897 0.329748C21.9336 0.532158 21.7606 0.744574 21.5776 0.968533C21.0816 1.5773 20.5202 2.26688 20.0096 3.09192C19.1644 4.45569 18.6976 5.81099 18.5823 7.23479C18.4577 8.77403 18.7261 10.3202 19.379 11.831C19.6081 12.3566 19.8811 12.8715 20.1895 13.361C20.3856 13.6704 20.594 13.9659 20.8078 14.2391L20.8409 14.2814L20.847 14.3607C20.8647 14.5885 20.8839 14.824 20.907 15.0557C20.9301 15.285 20.9539 15.5167 20.9801 15.7453L20.9878 15.8168L20.9416 15.8746C20.4218 16.5287 19.9104 17.2091 19.4259 17.8933L19.126 18.3397L18.6892 19.0138L18.5454 19.244L18.2647 19.695L17.8525 20.383L17.4526 21.078L17.065 21.7799L16.6897 22.4879L16.3268 23.2021L15.9761 23.9217L15.6377 24.6467L15.3632 25.2609L15.1955 24.8152C15.1417 24.6721 15.0886 24.5305 15.0371 24.3912L15.0194 24.3435L15.0302 24.2942C15.1371 23.7947 15.334 22.7457 15.4516 21.3419C15.5193 20.4915 15.5439 19.7742 15.5293 19.0831C15.5185 18.2242 15.4447 17.3745 15.3094 16.5564C15.2771 16.3648 15.2401 16.1739 15.1994 15.9885C15.1525 15.7737 15.1125 15.6098 15.0717 15.4559C14.9871 15.1373 14.8849 14.8194 14.7587 14.4831C14.5565 13.9405 14.3019 13.4125 13.9813 12.8692C13.6952 12.3843 13.3968 11.9626 13.14 11.6062L13.0277 11.4508C12.9316 11.3176 12.8408 11.1914 12.7539 11.0683C12.6186 10.8751 12.5155 10.7181 12.4294 10.5734C12.3056 10.3648 12.1649 10.3341 12.0926 10.3341C12.0664 10.3341 12.0395 10.3379 12.0134 10.3448C11.9388 10.3656 11.8673 10.4164 11.8057 10.4903C11.7434 10.5649 11.6904 10.6627 11.6465 10.7804C11.5835 10.9513 11.512 11.1268 11.4366 11.3122L11.0752 12.205C10.9729 12.4667 10.8698 12.7445 10.7683 13.0323C10.716 13.1786 10.6684 13.3325 10.6238 13.4764C10.5753 13.635 10.5307 13.7904 10.4899 13.9382C10.0824 15.4582 10.0293 16.8735 10.3285 18.265C10.653 19.7796 11.3551 21.2096 12.4156 22.5148C12.787 22.9697 13.1976 23.4038 13.6368 23.8055C13.9159 24.0602 14.202 24.2981 14.488 24.5128L14.5319 24.5459L14.5503 24.5959C14.6434 24.8468 14.7218 25.0561 14.7964 25.2509C14.8779 25.4594 14.961 25.6688 15.044 25.8742L15.071 25.9404L15.0433 26.0066C14.698 26.8301 14.3696 27.6775 14.0682 28.524C13.7706 29.356 13.4899 30.2265 13.2092 31.1831L13.1115 31.5171C13.09 31.5902 13.07 31.6641 13.0508 31.7349L12.9216 32.2059C12.8923 32.3114 12.8624 32.4199 12.8354 32.5284L12.6632 33.201L12.5009 33.8829C12.3379 34.5879 12.1872 35.3113 12.0518 36.0325L11.9665 36.4858L11.6973 36.1017C11.6004 35.9632 11.5066 35.8278 11.4181 35.7L11.3889 35.6577L11.3835 35.533C11.3789 35.4237 11.3735 35.2998 11.3643 35.1605C11.3574 35.0535 11.3489 34.9427 11.3397 34.8319L11.3066 34.464C11.2828 34.1969 11.2451 33.8983 11.2082 33.6151C11.1882 33.4573 11.1659 33.2988 11.1413 33.1425C11.1252 33.0379 11.1075 32.9309 11.089 32.8224L11.059 32.6423C11.0298 32.4691 10.9967 32.2913 10.9614 32.1166L10.9052 31.8465C10.8868 31.7557 10.8668 31.6641 10.8468 31.571C10.8052 31.3824 10.7591 31.1931 10.7114 31.0061L10.7022 30.9707C10.6568 30.7944 10.6099 30.612 10.5569 30.4273C10.4992 30.2249 10.4338 30.0163 10.3761 29.8363C10.3123 29.6346 10.2431 29.4322 10.1716 29.2359C10.1347 29.1351 10.0962 29.0328 10.057 28.9335L10.0408 28.8912C10.0078 28.8065 9.97394 28.7188 9.9378 28.631C9.85474 28.4263 9.76554 28.2216 9.67326 28.023C9.58021 27.8245 9.49562 27.6528 9.41564 27.4981C9.33028 27.3327 9.23953 27.1687 9.14571 27.0102C9.06497 26.8717 8.97269 26.7239 8.86425 26.5577C8.77197 26.4161 8.67585 26.2752 8.57664 26.139C8.39208 25.8842 8.1906 25.6326 7.97912 25.3925C7.78379 25.1708 7.58 24.9561 7.37237 24.7544C6.9571 24.3504 6.54799 24.011 6.19655 23.7255L6.07043 23.6231C5.75667 23.3676 5.45983 23.1259 5.21452 22.8904C5.07686 22.758 4.96074 22.7303 4.88769 22.7303C4.83693 22.7303 4.79079 22.7419 4.74696 22.7665C4.67928 22.8042 4.62315 22.8673 4.58008 22.9551C4.53702 23.042 4.5101 23.1482 4.5001 23.2729C4.4755 23.54 4.44012 23.8286 4.40167 24.1349C4.3117 24.8576 4.21019 25.6772 4.21019 26.58C4.21095 28.1415 4.52933 29.5222 5.18222 30.7998C5.89971 32.2021 6.96172 33.4327 8.33825 34.4586C8.82811 34.8234 9.34643 35.1551 9.87705 35.4437C10.2223 35.6315 10.5676 35.8 10.9037 35.9447L10.9552 35.9671L11.0252 36.0686C11.1459 36.2434 11.2705 36.4234 11.3974 36.5997C11.5297 36.7844 11.665 36.9714 11.7996 37.1553L11.8434 37.2154L11.8319 37.287C11.6919 38.1651 11.572 39.0617 11.4743 39.9522L11.3897 40.8149C11.3897 40.8149 11.3159 41.7515 11.3128 41.7846C11.3059 41.8662 11.2997 41.9501 11.2951 42.0347L11.2482 42.8529C11.2436 42.9275 11.239 43.0029 11.2359 43.0784L11.199 44.1181L11.1844 45.1663C11.1828 45.2418 11.1844 45.3172 11.1844 45.3988L11.1905 46.2107C11.1905 46.2977 11.1928 46.3839 11.1959 46.4724L11.2244 47.4267L11.262 48.1679L10.9121 47.86C10.7814 47.7453 10.6514 47.6299 10.5222 47.5145L10.4823 47.4783L10.4684 47.4275C10.3992 47.1812 10.2885 46.7995 10.1185 46.3269C9.96394 45.8613 9.73862 45.2818 9.44871 44.6061C9.37719 44.4429 9.30259 44.2782 9.22569 44.115L9.208 44.0773C9.13725 43.9249 9.06343 43.7679 8.98422 43.6078C8.81427 43.2615 8.61433 42.8975 8.42361 42.5565C8.32056 42.3757 8.21367 42.1948 8.10447 42.0194C8.00065 41.8516 7.88838 41.6807 7.77841 41.5129L7.75688 41.4806C7.50925 41.1081 7.24471 40.7479 6.96941 40.4093C6.72332 40.1015 6.46493 39.8082 6.20039 39.5396C6.13656 39.4742 6.0712 39.4096 6.00583 39.3465C5.94124 39.2834 5.87664 39.221 5.81281 39.1618C5.68669 39.044 5.55596 38.9286 5.42523 38.8177C5.17914 38.6099 4.91768 38.4106 4.64929 38.2236C4.40936 38.0558 4.15405 37.8919 3.89105 37.7372C3.37811 37.4355 2.88902 37.1961 2.46991 36.9953L2.31611 36.9214C1.94237 36.7428 1.58939 36.5735 1.28793 36.3996C1.18412 36.3396 1.08722 36.3088 0.999555 36.3088C0.919578 36.3088 0.851135 36.3334 0.794997 36.3827C0.735783 36.4342 0.695026 36.5081 0.674262 36.6035C0.65273 36.6974 0.651961 36.8067 0.672724 36.9299C0.715789 37.2023 0.751164 37.5001 0.789614 37.8157C0.874975 38.526 0.971871 39.3318 1.18643 40.1946C1.27179 40.5309 1.36484 40.8426 1.46942 41.1489C1.5171 41.2905 1.57632 41.4452 1.65629 41.6376C1.7255 41.8039 1.79933 41.9693 1.87623 42.1294C1.95621 42.2964 2.04157 42.4627 2.13 42.6227C2.21537 42.7759 2.3138 42.9375 2.42915 43.1153C2.66216 43.4716 2.90056 43.7895 3.15587 44.0858C3.45348 44.4275 3.77646 44.7546 4.1179 45.057C4.20403 45.134 4.28555 45.204 4.36706 45.2718C4.45089 45.3403 4.53625 45.4095 4.62161 45.475C4.78848 45.6043 4.96074 45.7305 5.13454 45.8498C5.46214 46.076 5.80743 46.2884 6.15887 46.4816C6.48108 46.6563 6.81868 46.821 7.16166 46.9711C7.7315 47.2189 8.32441 47.4306 8.92501 47.5983C9.31336 47.7069 9.69863 47.7969 10.0693 47.8654L10.1247 47.8754L10.1654 47.9116C10.5046 48.214 10.8706 48.5373 11.2513 48.8559L11.3105 48.9059L11.3597 49.5701L11.4589 50.6106L11.5804 51.6489L11.7242 52.6886C11.735 52.7633 11.7473 52.8372 11.7604 52.9164L11.8903 53.7214C11.9165 53.87 11.9442 54.0201 11.9711 54.1655L12.0787 54.7497C12.0926 54.8235 12.108 54.8967 12.1233 54.9713L12.2894 55.7756C12.321 55.9195 12.3548 56.0649 12.3871 56.2058L12.5225 56.7961C12.5401 56.87 12.5586 56.9431 12.5771 57.0162L12.777 57.8074L13.0554 58.8171L13.3184 59.6952L12.9116 59.4851C12.7493 59.4012 12.584 59.3151 12.4163 59.2273L12.3679 59.2019L12.2564 59.0126C12.2102 58.9326 12.161 58.8487 12.1103 58.7655C11.9911 58.5685 11.8634 58.3669 11.7265 58.1622C11.585 57.9467 11.4243 57.7019 11.242 57.4472L11.1021 57.2525L11.0298 57.154L10.9575 57.0531C10.856 56.9131 10.7522 56.7738 10.6484 56.6391C10.5376 56.4959 10.4238 56.352 10.3077 56.2104C10.1816 56.0519 10.0639 55.9079 9.94703 55.7702C9.81937 55.6193 9.6871 55.4685 9.55406 55.3223L9.47562 55.2361C9.36796 55.1168 9.25645 54.9936 9.13879 54.8705C8.88271 54.6004 8.58203 54.3048 8.21905 53.9677C8.05525 53.8169 7.8853 53.6676 7.71535 53.5252C7.62768 53.4521 7.53848 53.379 7.45081 53.3082C7.34776 53.225 7.2624 53.1565 7.18165 53.0942C6.86636 52.8495 6.53876 52.6201 6.20808 52.4123C6.02429 52.2976 5.87356 52.2076 5.73283 52.1276C5.5798 52.0406 5.42292 51.9559 5.26527 51.8767C4.71543 51.5973 4.13098 51.361 3.47962 51.1548C2.84519 50.9539 2.24228 50.8184 1.70628 50.6976C1.29409 50.6045 0.904197 50.5175 0.564293 50.4136C0.488161 50.3898 0.417412 50.3782 0.352815 50.3782C0.264378 50.3782 0.142874 50.4013 0.0652036 50.5121C-0.024771 50.6414 -0.0209259 50.8354 0.0767388 51.0732C0.172096 51.3033 0.264378 51.555 0.333589 51.7466L0.618124 52.5016C0.827296 53.065 1.07569 53.6299 1.35561 54.1809C2.09694 55.5978 3.04359 56.7083 4.2494 57.5742C4.62776 57.8428 5.02919 58.0906 5.44138 58.3099C5.56057 58.373 5.65286 58.4207 5.74129 58.4631C5.84049 58.5116 5.94277 58.5593 6.04351 58.6047C6.23961 58.6932 6.44263 58.7771 6.64488 58.8548C7.03939 59.0064 7.43466 59.135 7.81917 59.2381C8.18291 59.3351 8.55819 59.4182 8.935 59.4851C9.56483 59.596 10.207 59.6645 10.8437 59.6868C11.0175 59.6929 11.1928 59.696 11.3651 59.696C11.5989 59.696 11.8288 59.6899 12.0487 59.6783L12.1049 59.6752L12.1541 59.7014C12.3694 59.8145 12.5978 59.9338 12.8254 60.0493C13.04 60.1562 13.2569 60.2632 13.4714 60.3679L13.5437 60.4033L13.5675 60.4764C14.6872 63.8781 16.1768 67.0821 17.9932 69.9997L18.2239 70.3699L17.781 70.2714C17.5949 70.2298 17.4149 70.189 17.2373 70.1475L17.1804 70.1344L17.1411 70.0944C16.9266 69.875 16.1268 69.0823 14.8418 68.071C14.6042 67.8848 14.2866 67.6393 13.9382 67.3953L13.6952 67.2244C13.6129 67.1667 13.5291 67.109 13.446 67.052C13.2745 66.9358 13.0984 66.8212 12.9231 66.7111L12.6532 66.5426C12.5617 66.4856 12.4694 66.4294 12.3771 66.3748C12.1864 66.2617 11.9926 66.1516 11.8011 66.0485L11.715 66.0031C11.5573 65.9192 11.3797 65.8237 11.2021 65.7352C10.9944 65.6313 10.7837 65.5321 10.5738 65.4397C10.4792 65.3981 10.3831 65.3566 10.2877 65.3173C10.1839 65.2735 10.0924 65.2357 10.0085 65.2027C9.82783 65.1311 9.64327 65.0634 9.46024 65.001C9.12957 64.8879 8.78505 64.7886 8.40669 64.697C7.79148 64.5477 7.1655 64.4515 6.49262 64.4022C6.21808 64.3822 5.93662 64.3699 5.63363 64.363C5.48829 64.3599 5.33448 64.3591 5.16299 64.3591C5.05456 64.3591 4.94844 64.3591 4.84385 64.3607L4.63468 64.3622C4.49011 64.3638 4.34938 64.3645 4.21326 64.3645C3.90566 64.3645 3.67957 64.3584 3.47809 64.3445C3.45578 64.343 3.43425 64.3422 3.41272 64.3422C3.17663 64.3422 3.07512 64.44 3.03052 64.5223C2.98438 64.6085 2.93978 64.8001 3.16279 65.108C3.222 65.1896 3.28506 65.2796 3.36812 65.3997C3.43271 65.4905 3.50116 65.5898 3.58498 65.7121L4.04792 66.3917C4.20634 66.6188 4.38014 66.8573 4.57931 67.1206C4.68544 67.2599 4.78156 67.383 4.87308 67.4969C4.97997 67.6262 5.0884 67.7524 5.19529 67.8732C5.30988 68.0033 5.42677 68.1295 5.54058 68.2488C5.60056 68.3119 5.66208 68.3743 5.72284 68.4358C5.78589 68.4989 5.85203 68.5605 5.91586 68.6205C6.18963 68.8761 6.47416 69.1162 6.75947 69.3324C7.07399 69.5656 7.40544 69.7827 7.74534 69.9774C7.84839 70.0359 7.93298 70.0828 8.01373 70.1259C8.10678 70.1736 8.2006 70.2214 8.29442 70.266C8.48744 70.3583 8.68584 70.4461 8.88348 70.5254C10.16 71.0356 11.5473 71.295 13.0069 71.295C13.3115 71.295 13.6221 71.2834 13.9305 71.2611C14.5626 71.2149 15.2025 71.1218 15.8315 70.9864C16.2314 70.8994 16.6236 70.7963 16.9958 70.6785L17.0496 70.6616L17.1042 70.6747C17.3519 70.7324 17.601 70.7886 17.8471 70.8424L18.0463 70.8855L18.2539 70.9279L18.6376 71.0041L18.6815 71.0702C20.6848 74.0849 23.0333 76.7608 25.661 79.0251L25.9948 79.3121L25.5442 79.3437C25.3588 79.3568 25.172 79.3675 24.9843 79.3791L24.9274 79.3821L24.8774 79.356C24.8305 79.3314 24.779 79.3044 24.7252 79.2767L24.6006 79.2136L24.4652 79.1436C24.2584 79.0366 24.0392 78.9288 23.8139 78.8242L23.4294 78.6441C23.2909 78.5802 23.1487 78.5163 23.0064 78.454C22.9395 78.4255 22.7511 78.3447 22.7511 78.3447C22.5427 78.2547 22.3074 78.1531 22.0605 78.0561L21.8875 77.9884C21.6014 77.8768 21.3061 77.7613 20.9916 77.6505L20.8847 77.6136C20.5425 77.495 20.188 77.3734 19.815 77.2626C18.8899 76.984 18.0271 76.7824 17.1796 76.6477C16.7167 76.5769 16.3344 76.533 15.9769 76.5084C15.7892 76.4953 15.5993 76.4861 15.4116 76.4822C15.3209 76.4799 15.2248 76.4791 15.1263 76.4791C15.0402 76.4791 14.9548 76.4799 14.871 76.4815C14.2327 76.493 13.5991 76.5569 12.9346 76.6785C12.3264 76.7885 11.7857 76.9286 11.3266 77.051L11.1513 77.0979C10.7399 77.208 10.3515 77.3119 9.99778 77.3765C9.73016 77.4242 9.6425 77.5512 9.61558 77.6497C9.58867 77.7482 9.59097 77.9514 9.9055 78.2069C9.9924 78.277 10.0847 78.3547 10.1877 78.4432L10.4876 78.6972L11.1336 79.2498C11.3443 79.426 11.5827 79.6169 11.8619 79.8324L11.8803 79.8462C11.9941 79.9332 12.1233 80.0317 12.2579 80.1272C12.4025 80.2287 12.5448 80.3249 12.6816 80.415C12.9231 80.5728 13.2461 80.7775 13.6029 80.963C13.769 81.0507 13.9374 81.1346 14.1051 81.2131C14.2589 81.2847 14.4419 81.3678 14.6349 81.4424C15.0164 81.5917 15.4032 81.7179 15.7831 81.8172C16.2014 81.9219 16.629 82.0004 17.0527 82.0504C17.4434 82.0935 17.8386 82.1158 18.2278 82.1158C18.763 82.1158 19.3036 82.0743 19.8342 81.9919C20.5956 81.878 21.3753 81.6741 22.1513 81.3855C22.4812 81.2623 22.7995 81.1292 23.0987 80.9884C23.3671 80.8629 23.6339 80.7259 23.8939 80.5828C24.2514 80.385 24.5944 80.1741 24.912 79.9563L24.9582 79.9247L25.0151 79.9217C25.1304 79.9147 25.2458 79.9086 25.3604 79.9001L25.7779 79.867C26.0179 79.847 26.2601 79.8247 26.4993 79.8016L26.5816 79.7939L26.6446 79.8439C27.3706 80.4219 28.1119 80.9714 28.8463 81.4755C29.6338 82.0081 30.4482 82.5153 31.2656 82.9824C32.0731 83.4381 32.929 83.8752 33.8064 84.2816L34.4616 84.5732C34.5355 84.6071 34.6093 84.6371 34.6847 84.6687C34.7208 84.6833 35.2399 84.8973 35.2399 84.8973C35.3099 84.9265 35.3821 84.9565 35.4552 84.9842L36.3234 85.3136L35.9028 85.5006C35.7382 85.573 35.5713 85.6453 35.4044 85.7161L35.3529 85.7385L34.8323 85.6669C34.5985 85.6361 34.354 85.6084 34.1017 85.5853C33.7857 85.5491 33.4927 85.5222 33.2097 85.5022C33.1259 85.4968 33.0413 85.4906 32.9474 85.4829C32.8698 85.4768 32.7906 85.4699 32.7098 85.4645C32.5314 85.4522 32.3499 85.4414 32.1738 85.4337C32.0846 85.4306 31.9954 85.426 31.9054 85.4214H31.8939C31.8008 85.416 31.707 85.4114 31.6109 85.4075C31.4148 85.3998 31.2149 85.3952 31.018 85.3929C30.9303 85.3929 30.8427 85.3914 30.7542 85.389H30.7135C30.6112 85.3867 30.5074 85.386 30.4028 85.386C30.1905 85.386 29.976 85.3898 29.7622 85.3967C29.3146 85.4044 28.8671 85.4268 28.4287 85.4637C27.9842 85.4953 27.5159 85.5476 27.0345 85.6192C26.6262 85.6777 26.2217 85.7539 25.8325 85.8462C25.6103 85.9001 25.4403 85.9432 25.2827 85.987C25.1074 86.0355 24.9328 86.0886 24.7636 86.1448C24.4429 86.2503 24.1222 86.3711 23.8093 86.505C23.5286 86.6235 23.244 86.7567 22.9641 86.9006C22.4258 87.1769 21.9436 87.4716 21.5338 87.7264L21.4338 87.7887C21.0377 88.035 20.6955 88.2482 20.3595 88.4183C20.2587 88.4691 20.0296 88.6138 20.0865 88.8477C20.1257 89.0086 20.288 89.1525 20.5448 89.2518C20.7947 89.3511 21.0554 89.4634 21.2784 89.5612L21.4707 89.6458L21.6322 89.7143L22.0982 89.909C22.2582 89.9752 22.4027 90.0337 22.5389 90.0884C22.6065 90.1161 22.6796 90.1438 22.7703 90.1769L23.0064 90.2623C23.1725 90.3216 23.3371 90.3777 23.4932 90.4285L23.5155 90.4355C23.6708 90.4855 23.8323 90.5378 24.0054 90.584C24.992 90.8641 25.9733 91.0057 26.9207 91.0057C27.5574 91.0057 28.1926 90.9419 28.8102 90.8156C29.26 90.7271 29.7199 90.5978 30.2175 90.4193C30.4382 90.34 30.6535 90.2538 30.858 90.1646C31.0603 90.0745 31.2625 89.9768 31.4594 89.8744C31.8316 89.6805 32.1938 89.4657 32.5345 89.2356C32.8475 89.0224 33.1551 88.7892 33.4488 88.5445C33.708 88.3282 33.9618 88.0966 34.2032 87.8572C34.4055 87.6564 34.6093 87.4386 34.8085 87.21C35.0745 86.9044 35.3214 86.5912 35.5421 86.2795L35.5736 86.2356L35.6252 86.2141C36.0966 86.0155 36.5526 85.8 36.9748 85.5968L37.0494 85.5614L37.1278 85.5876C37.2101 85.6145 37.2924 85.6415 37.3747 85.6684C39.1988 86.2587 41.0882 86.6874 42.9923 86.9437C44.4834 87.1438 46.023 87.2077 47.511 87.2685C47.9647 87.2869 48.4185 87.3054 48.8776 87.3285C48.9468 87.3285 49.0037 87.2708 49.0037 87.2007V87.1376C49.0037 86.899 48.8683 86.722 48.623 86.6389L48.6199 86.632Z" fill="url(#paint0_linear_571_22472)"/>
</g>
<defs>
<linearGradient id="paint0_linear_571_22472" x1="15.4998" y1="50.5001" x2="41.4998" y2="46.0001" gradientUnits="userSpaceOnUse">
<stop stop-color="#D7D7E2"/>
<stop offset="1" stop-color="#CBCBD9"/>
</linearGradient>
<clipPath id="clip0_571_22472">
<rect width="49" height="91" fill="white"/>
</clipPath>
</defs>
</svg>
