<svg width="49" height="91" viewBox="0 0 49 91" fill="none" xmlns="http://www.w3.org/2000/svg">
<g clip-path="url(#clip0_571_22477)">
<path d="M0.380062 86.632C0.537708 86.5789 0.713043 86.5658 0.898376 86.5512C2.43102 86.435 4.07748 86.298 5.73393 86.0832C6.23533 86.0178 6.7375 85.9417 7.22813 85.8562L8.0279 85.7038L8.64157 85.5684C8.68233 85.5591 8.72386 85.5499 8.76769 85.5407C8.84613 85.5237 8.91995 85.5076 8.99301 85.4891C8.99301 85.4891 9.46288 85.3706 9.5244 85.3552C9.66051 85.3213 9.80047 85.2859 9.93736 85.2482L10.0181 85.2259L10.0558 85.1543C10.1665 84.9457 10.2757 84.7349 10.3811 84.5271C10.4364 84.4201 10.4903 84.307 10.5426 84.1969L10.5579 84.1654C10.7656 83.7251 10.6049 83.2787 10.4634 82.8847C10.4172 82.7569 10.3742 82.6369 10.3442 82.5207C10.2073 81.9989 10.1119 81.4455 10.0604 80.8745C9.96581 79.837 10.0119 78.7187 10.1981 77.5497C10.3903 76.3406 10.6941 75.3524 11.1263 74.5297C11.3969 74.0148 11.6769 73.6169 11.9814 73.3145C12.0729 73.2236 12.1683 73.1359 12.269 73.0436C12.5566 72.7803 12.8535 72.5079 13.0503 72.1508C13.0842 72.09 13.158 71.9876 13.2795 71.9876C13.3087 71.9876 13.3395 71.9938 13.3695 72.0061C13.4825 72.05 13.5894 72.1785 13.6717 72.3671C13.7632 72.5795 13.8709 72.8096 13.9854 73.0536C14.2377 73.5908 14.5238 74.2003 14.7652 74.8968C14.8106 75.0284 14.8537 75.16 14.8913 75.2878C14.9313 75.4209 14.9675 75.5541 15.0021 75.6934C15.0736 75.9835 15.129 76.2744 15.1666 76.5576C15.2535 77.2034 15.2451 77.8398 15.1428 78.5017C15.0805 78.8696 14.9882 79.2436 14.8683 79.613C14.7491 79.9594 14.6068 80.298 14.4453 80.6212C14.3661 80.7736 14.28 80.9283 14.1892 81.0807C14.1454 81.1538 14.1 81.2285 14.0539 81.3016C14.0047 81.3793 13.9601 81.4486 13.9124 81.5155C13.8201 81.6472 13.7217 81.7811 13.6186 81.9142C13.5694 81.9781 13.5187 82.042 13.4679 82.1043L13.3918 82.1967C13.371 82.2205 13.3502 82.2444 13.3295 82.2682L13.3141 82.2859C13.0957 82.5299 12.8881 82.7462 12.6958 82.9278C12.5059 83.1025 12.3067 83.2734 12.1037 83.4381C12.0537 83.4796 12.0045 83.5166 11.9629 83.5466L11.8291 83.6443C11.7461 83.7043 11.6623 83.7628 11.5792 83.8198C11.4715 83.8929 11.3462 83.9776 11.2362 84.0438L11.1862 84.0738L11.1624 84.1246C11.0886 84.2831 11.0124 84.4424 10.9363 84.6002L10.7287 85.025L11.1562 84.8888C11.8637 84.6641 12.5628 84.4162 13.2357 84.1538C14.0916 83.8121 14.9459 83.4304 15.7765 83.0194C16.5686 82.623 17.3853 82.1705 18.2066 81.6733L18.7972 81.3047C18.8594 81.267 18.921 81.2262 18.9863 81.1823C19.0194 81.16 19.0532 81.1377 19.0863 81.1161L19.4847 80.8529C19.5469 80.8121 19.6062 80.7729 19.6646 80.7328L20.3767 80.2334L20.4928 80.1472L20.5013 80.0702C20.5121 79.9732 20.5328 79.8562 20.5551 79.7323C20.632 79.3013 20.7182 78.8126 20.5482 78.464C20.4798 78.3232 20.3852 78.2054 20.2944 78.0907C20.2675 78.0569 20.2398 78.0222 20.2137 77.9876C19.9614 77.6559 19.6154 77.201 19.4439 76.7739C18.7241 74.9876 18.325 73.5023 18.1496 71.9568C18.042 71.0125 18.052 70.099 18.1789 69.2424C18.2465 68.7868 18.3481 68.3435 18.4803 67.9256C18.5295 67.7701 18.6057 67.5985 18.6864 67.4161C18.8041 67.1498 18.9264 66.8743 18.9779 66.6157C19.024 66.3833 19.174 66.3586 19.2363 66.3586C19.3624 66.3586 19.5093 66.4471 19.65 66.608C19.8461 66.8319 20.0491 67.0567 20.2452 67.2729C21.0857 68.2026 21.8801 69.0808 22.4084 70.1813C23.3359 72.1146 23.319 74.4804 22.3608 76.6715C22.3308 76.74 22.3008 76.807 22.2708 76.8724C22.247 76.9248 22.2223 76.9732 22.1985 77.0202L22.1762 77.0648C22.0547 77.3034 21.9278 77.5335 21.7986 77.7506C21.684 77.9337 21.5648 78.1146 21.4426 78.2878C21.391 78.3616 21.3388 78.4332 21.288 78.5032C21.2588 78.541 21.2295 78.5779 21.2003 78.6148L21.165 78.6587L21.1611 78.7133C21.1496 78.8873 21.1365 79.0635 21.1227 79.239L21.085 79.7116L21.4372 79.4368C24.108 77.3519 26.5181 74.8437 28.5998 71.9807L28.6459 71.9176L28.6305 71.8422C28.5821 71.6051 28.5283 71.3704 28.4783 71.1526C28.4237 70.9148 28.366 70.6747 28.3083 70.4384C28.2768 70.3106 28.1468 70.1952 27.9661 70.0451C27.9246 70.0105 27.8846 69.9781 27.8654 69.9581C27.8338 69.9266 27.8023 69.8958 27.7685 69.8666C26.7572 68.9807 25.9428 68.1888 25.2584 67.2006C24.5848 66.2278 24.0288 65.1457 23.6066 63.9843C23.2674 63.0523 23.1021 62.2889 23.0859 61.5839C23.0775 61.2168 23.1259 60.8566 23.1767 60.4756C23.2336 60.05 23.2928 59.6106 23.2644 59.165C23.2551 59.0211 23.302 58.9402 23.3428 58.8979C23.3905 58.8487 23.4582 58.8225 23.5374 58.8225C23.6489 58.8225 23.7765 58.8702 23.9165 58.9641C24.1303 59.1088 24.3725 59.2596 24.6294 59.4197L24.6624 59.4405C24.7701 59.5075 24.8808 59.5767 24.9939 59.6483C25.3715 59.8869 25.8167 60.177 26.2604 60.5203C26.7534 60.902 27.1717 61.2907 27.5401 61.7101C27.7485 61.9464 27.94 62.1957 28.1245 62.4713C28.3229 62.7691 28.4952 63.0708 28.6375 63.3694C28.802 63.7181 28.9451 64.0859 29.062 64.4607C29.1658 64.8078 29.2504 65.1734 29.3134 65.5451C29.3657 65.8792 29.3995 66.2224 29.4172 66.5934C29.428 66.8951 29.4234 67.2175 29.4026 67.5762C29.3611 68.1534 29.2719 68.7252 29.1442 69.2316C29.0812 69.491 29.0266 69.6888 28.9704 69.855C28.9281 69.9858 28.8835 70.1151 28.8382 70.2391L28.8197 70.2898L28.8336 70.3422C28.8766 70.5076 28.9212 70.6885 28.9697 70.8955L29.0704 71.3265L29.3234 70.9556C31.2367 68.1465 32.8186 65.0672 34.0267 61.8032L34.0536 61.7309L33.8798 61.3961C33.8406 61.3207 33.8014 61.236 33.7606 61.1475C33.603 60.8081 33.4238 60.4241 33.1362 60.2078C33.0047 60.1085 32.8524 60.0539 32.7178 60.0054L32.6994 59.9985C31.7004 59.636 30.7776 59.1504 29.9571 58.5539C29.1066 57.9359 28.3583 57.2063 27.7354 56.3866C27.0971 55.5478 26.5911 54.6165 26.2312 53.6191C26.0528 53.125 25.9113 52.6147 25.8106 52.1037C25.7737 51.9151 25.7483 51.7174 25.7237 51.5265C25.6837 51.2132 25.6421 50.8885 25.546 50.5737C25.4699 50.322 25.6106 50.222 25.6568 50.1966C25.7067 50.1689 25.7683 50.155 25.8398 50.155C25.9267 50.155 26.0259 50.1758 26.1343 50.2166C26.3796 50.3089 26.6534 50.4005 26.9449 50.4975C27.5009 50.683 28.1307 50.8931 28.7913 51.1879C29.0643 51.3102 29.3157 51.4349 29.5595 51.5696C29.8279 51.7181 30.0863 51.8805 30.3285 52.0506C30.5938 52.2368 30.8499 52.4408 31.0875 52.6563C31.3367 52.8826 31.572 53.1288 31.8066 53.4113C31.9342 53.5652 32.0588 53.7261 32.1742 53.8869C32.2841 54.0439 32.3918 54.2078 32.4925 54.3741C32.5902 54.5349 32.6848 54.7012 32.774 54.8705C32.8163 54.949 32.857 55.0313 32.8993 55.1214C32.9385 55.2037 32.9762 55.2876 33.0131 55.3715C33.2792 55.9711 33.4861 56.6298 33.626 57.3279C33.6814 57.6203 33.7276 57.919 33.7614 58.2176C33.786 58.4762 33.8029 58.7386 33.8114 58.9995C33.8214 59.2381 33.8152 59.452 33.8075 59.6483C33.8022 59.7876 33.7937 59.9246 33.7837 60.0554L33.7799 60.1093L33.8068 60.1562C33.8883 60.2986 33.9675 60.4418 34.0436 60.5803L34.2989 61.0498L34.4843 60.518L34.6957 59.8669L34.8019 59.539L35.0972 58.5539C35.0972 58.5539 35.301 57.8151 35.3125 57.7758C35.3325 57.7027 35.3517 57.6342 35.3694 57.5642L35.5147 56.99C35.5501 56.8507 35.587 56.7068 35.6201 56.5667L35.8031 55.771C35.8193 55.7001 35.8354 55.6324 35.8485 55.5639L35.9677 54.9882C35.9977 54.8466 36.0277 54.6996 36.0554 54.5565L36.2022 53.7599C36.2161 53.686 36.2292 53.616 36.2399 53.5452L36.3361 52.9487C36.3584 52.811 36.3814 52.6694 36.4022 52.5308C36.4022 52.5308 36.5075 51.7712 36.5137 51.7304C36.5245 51.655 36.5345 51.5842 36.5429 51.5126L36.6129 50.9131C36.6252 50.8069 36.6383 50.7007 36.6498 50.5945L36.6583 50.5183L36.6067 50.459C36.4545 50.2835 36.2991 50.1073 36.1461 49.9341L35.8731 49.6286C35.8008 49.5486 35.7324 49.4716 35.6609 49.3946C35.557 49.2823 35.3925 49.2692 35.2779 49.2692C35.2364 49.2692 35.1948 49.2715 35.1564 49.273C35.1295 49.2746 35.1049 49.2753 35.0841 49.2753H35.0733C34.9165 49.27 34.7642 49.2346 34.6019 49.1968L34.5596 49.1868C34.0336 49.0652 33.4238 48.919 32.8524 48.7143C32.0834 48.4388 31.2882 48.0278 30.4208 47.4567C29.0596 46.5609 28.0761 45.6327 27.4124 44.6184C27.0748 44.1019 26.7741 43.4932 26.4673 42.7028C26.4142 42.5666 26.365 42.4219 26.3181 42.2833C26.2497 42.0817 26.1782 41.8731 26.0905 41.6723C26.0736 41.6338 26.0551 41.5953 26.0367 41.556C25.9175 41.3059 25.8836 41.2005 26.0067 41.0866C26.0543 41.0419 26.1482 40.9888 26.3197 40.9888C26.3658 40.9888 26.4165 40.9927 26.4688 41.0004C26.7265 41.0396 27.0125 41.0712 27.3178 41.1043C27.8854 41.1666 28.5283 41.2374 29.2181 41.3829C29.8148 41.5099 30.357 41.6776 30.8753 41.8978C31.1821 42.0286 31.4713 42.1725 31.7358 42.3272C32.0303 42.4996 32.3187 42.6959 32.5925 42.9098C32.6709 42.9714 32.7494 43.0353 32.827 43.0999L32.9362 43.193L33.0501 43.2954C33.1908 43.4247 33.3307 43.5617 33.4653 43.7025C33.5945 43.8372 33.7237 43.9804 33.8475 44.1266C33.979 44.282 34.0944 44.4344 34.189 44.563C34.5804 45.0886 34.9203 45.6697 35.2264 46.3377C35.3456 46.6078 35.4578 46.8887 35.5601 47.1735C35.6101 47.3082 35.6509 47.4436 35.6878 47.5637C35.7239 47.6838 35.7593 47.8061 35.7916 47.9262C35.9085 48.3433 35.9692 48.6843 36.0131 48.9629L36.0215 49.016L36.0592 49.056C36.1746 49.1807 36.2953 49.3123 36.4137 49.4424L36.7267 49.7964L36.7636 49.3461C36.8928 47.7769 36.9436 46.1291 36.9143 44.4483L36.9128 44.3259C36.912 44.2528 36.9113 44.1797 36.909 44.1066L36.8721 43.0768L36.8136 42.0517C36.8098 41.9801 36.8044 41.9093 36.7975 41.8308C36.7944 41.7908 36.7905 41.7508 36.7882 41.7107C36.729 40.8765 36.6429 40.0176 36.5268 39.0833L36.5175 39.0086L36.4545 38.9617C36.2722 38.8247 36.0869 38.6877 35.9046 38.553C35.7208 38.4175 35.5301 38.2821 35.3456 38.1512L35.3186 38.132C35.2279 38.0727 35.0979 38.0489 34.8703 38.0489C34.8065 38.0489 34.7419 38.0504 34.6827 38.0527C34.635 38.0543 34.5904 38.055 34.5519 38.055C34.5335 38.055 34.5166 38.055 34.5027 38.0535C34.2105 38.0335 33.9675 38.015 33.7391 37.9958C33.1885 37.9488 32.7063 37.895 32.2634 37.8311C30.6069 37.5917 27.5616 36.8514 25.7821 34.5887C25.5476 34.2908 25.3384 33.9637 25.1361 33.6474C25.0385 33.4943 24.94 33.3411 24.8393 33.1903C24.7855 33.1102 24.7063 33.0171 24.6232 32.9194C24.4379 32.7023 24.158 32.3745 24.1903 32.1713C24.1964 32.1336 24.2156 32.0759 24.3133 32.0135C24.3794 31.9712 24.4579 31.9435 24.5471 31.9327C25.5676 31.8034 26.4873 31.6964 27.4032 31.6964C28.0222 31.6964 28.5759 31.7457 29.0958 31.8465C30.3977 32.0997 31.6581 32.7216 32.7401 33.6459C33.7345 34.4948 34.5666 35.5784 35.2125 36.8667C35.2379 36.9175 35.2633 36.9691 35.2879 37.0199C35.4671 37.3878 35.6516 37.768 36.0523 38.0065L36.3791 38.2013L36.3499 37.8372C36.3053 37.28 36.1892 36.7159 36.0769 36.1702C36.0454 36.0171 36.0138 35.8639 35.9838 35.7115L35.8477 35.0381L35.7001 34.3685C35.6739 34.2469 35.6455 34.1269 35.6232 34.0353L35.5147 33.5805C35.4978 33.5097 35.4809 33.4381 35.4632 33.368L35.3779 33.0348C34.9441 31.3255 34.3981 29.5954 33.7552 27.8937L33.7283 27.8229L33.6568 27.7898C33.4538 27.6967 33.2485 27.6044 33.0454 27.5143C32.8386 27.422 32.6248 27.3311 32.4172 27.2434L32.3526 27.2165L32.2941 27.2257C31.3059 27.3827 30.3108 27.4627 29.3342 27.4627C27.7531 27.4627 26.2904 27.2565 24.9862 26.8501C24.0195 26.5484 23.1013 26.1105 22.2554 25.5487C21.8355 25.2693 21.4341 24.9592 21.0619 24.6259C21.0004 24.5705 20.925 24.5151 20.8458 24.4558C20.6313 24.2958 20.3636 24.0964 20.389 23.9156C20.4006 23.8363 20.4628 23.6901 20.7574 23.5954C20.9881 23.5223 21.2395 23.4307 21.5072 23.3337C22.0232 23.1459 22.6084 22.9335 23.2674 22.7704C23.8503 22.6272 24.3894 22.5472 24.9154 22.5256C25.0239 22.521 25.1308 22.5187 25.2346 22.5187C25.4414 22.5187 25.6468 22.5272 25.8452 22.5449C26.1758 22.5741 26.5127 22.6272 26.8449 22.7026C27.2248 22.7919 27.5977 22.9066 27.953 23.0428C28.1261 23.1105 28.2999 23.1844 28.4713 23.2629C28.559 23.3029 28.6436 23.343 28.7228 23.3822C28.8028 23.423 28.8843 23.4653 28.9643 23.5092C29.1204 23.5939 29.2773 23.6839 29.4311 23.777C29.5849 23.8709 29.7325 23.9702 29.8686 24.0633C29.9932 24.1495 30.1386 24.2526 30.2785 24.3604C30.4046 24.4589 30.5323 24.5613 30.6561 24.6659C31.0837 25.0261 31.489 25.4263 31.8619 25.8565C32.0265 26.0428 32.1634 26.2175 32.2749 26.363C32.3795 26.5007 32.4602 26.61 32.5217 26.6977L32.5525 26.7424L32.604 26.7639C32.7309 26.8178 32.8732 26.8786 33.0239 26.9432L33.4584 27.1303L33.2861 26.7101C32.0834 23.7739 30.5846 20.9725 28.8343 18.3874L28.779 18.3012C28.7543 18.2627 28.729 18.2234 28.7036 18.1857L28.3237 17.6162L28.243 17.6C28.0499 17.5616 27.8392 17.5215 27.5885 17.4746L27.4878 17.4561C27.3963 17.4392 27.3048 17.4223 27.2125 17.4061L26.8495 17.3453L26.7949 17.3684C24.5894 18.2989 22.5838 18.7806 20.6636 18.8407C20.5421 18.8445 20.4198 18.8461 20.2983 18.8461C19.3409 18.8461 18.4288 18.7268 17.5875 18.4913C17.1015 18.355 16.6416 18.1334 16.1971 17.9187C15.7942 17.724 15.3774 17.5231 14.9313 17.3792C14.8352 17.3484 14.676 17.2699 14.6845 17.0936C14.6906 16.972 14.7814 16.8489 14.9467 16.7388C15.1367 16.6142 15.3397 16.4679 15.5581 16.3109C15.9949 15.9977 16.4893 15.6421 17.0746 15.3104C17.5721 15.0318 18.0581 14.8179 18.5588 14.6578C19.1817 14.4631 19.7923 14.3599 20.4259 14.343C20.5028 14.3407 20.582 14.3392 20.6612 14.3392C20.9412 14.3392 21.238 14.3569 21.5687 14.3923C21.7594 14.4123 21.947 14.4446 22.1201 14.4754C22.2685 14.5031 22.4638 14.5408 22.6553 14.5901C23.0406 14.6886 23.3697 14.7909 23.6612 14.9018C23.8165 14.9595 23.9742 15.0226 24.131 15.088C24.2748 15.1511 24.4225 15.2188 24.5709 15.2912C25.0669 15.5305 25.5583 15.8191 26.0328 16.1485C26.2289 16.2817 26.3958 16.4125 26.545 16.5287L26.5588 16.5395C26.6895 16.6426 26.7949 16.7288 26.8818 16.8043L26.9233 16.8404L27.9054 17.0067L27.6462 16.6457C27.2701 16.1231 26.881 15.6044 26.4873 15.1034C25.9721 14.4515 25.4245 13.7989 24.8593 13.1647C23.7704 11.9387 22.5761 10.7543 21.3118 9.64524C21.1711 9.5221 20.8896 9.50979 20.4759 9.50594C20.379 9.50517 20.2783 9.5044 20.2344 9.49824C19.9661 9.46438 19.6908 9.41282 19.4247 9.36279L19.2563 9.33124C18.4242 9.17654 17.7921 9.04032 17.2061 8.8887C15.6696 8.49158 14.4453 7.97055 13.4625 7.29559C12.765 6.81611 12.0821 6.1858 11.3754 5.36769C11.1101 5.06138 10.8617 4.72659 10.6202 4.40335C10.3272 4.00931 10.0235 3.60218 9.68358 3.23276C9.5367 3.07268 9.4821 2.89874 9.53516 2.75559C9.57207 2.65554 9.67358 2.52779 9.94812 2.48623C10.155 2.4539 10.3772 2.41234 10.6126 2.3677C11.2585 2.24533 11.9906 2.10757 12.8396 2.08448C12.9073 2.08218 12.978 2.08064 13.0519 2.08064C13.1257 2.08064 13.2026 2.08218 13.2864 2.08448C13.4402 2.0891 13.5956 2.0968 13.7486 2.10911C13.9093 2.12066 14.0739 2.14374 14.2277 2.16529C14.3738 2.18761 14.5476 2.21532 14.7222 2.2538C15.1228 2.34462 15.4473 2.44005 15.7449 2.55395C15.8318 2.58628 15.9203 2.62091 16.0072 2.65631C16.1118 2.69864 16.1956 2.73481 16.2725 2.77176C16.4501 2.85487 16.6301 2.94569 16.8054 3.04035C17.5806 3.4698 18.3011 4.02393 18.9456 4.68811C19.0786 4.82664 19.2317 4.98827 19.3693 5.15142C19.4977 5.30381 19.6254 5.46235 19.7477 5.62166C19.8707 5.78251 19.9853 5.95029 20.083 6.09344C20.1345 6.16963 20.186 6.24813 20.236 6.3251C20.2798 6.39282 20.3198 6.46055 20.359 6.5252L20.3783 6.55752C20.4659 6.70529 20.552 6.85614 20.6336 7.00775C20.7166 7.16014 20.7912 7.31637 20.8512 7.44105C20.915 7.57496 20.9773 7.71272 21.0365 7.84741C21.0881 7.97055 21.138 8.09676 21.1865 8.22452C21.3118 8.55007 21.418 8.88024 21.5095 9.23426L21.5241 9.29199L21.5718 9.33047C23.5989 10.9636 25.5076 12.8322 27.2448 14.8856L27.5508 15.2473L27.5908 14.7863C27.6062 14.6062 27.6208 14.4284 27.6347 14.2553L27.6385 14.2052L27.6154 14.1606C27.5485 14.0329 27.4801 13.8959 27.4124 13.7558L27.2717 13.4587C27.2186 13.3479 27.1656 13.2348 27.1148 13.1216C27.0664 13.0154 27.0133 12.8954 26.9495 12.746C26.8895 12.6114 26.8295 12.4736 26.7726 12.3366C26.7388 12.2573 26.7057 12.175 26.6711 12.0873L26.6672 12.078C26.6426 12.0172 26.618 11.9556 26.5919 11.8933C26.5288 11.7386 26.4665 11.5801 26.4065 11.4208C25.9967 10.3294 25.4222 8.66321 25.1692 6.79303C25.1146 6.38974 25.0815 6.02571 25.0685 5.67861C25.0539 5.31227 25.0554 4.98211 25.0731 4.66887C25.0815 4.51187 25.0946 4.3541 25.1108 4.1994C25.1269 4.04163 25.1446 3.89617 25.1654 3.75456C25.2061 3.47981 25.2576 3.2089 25.3238 2.92722C25.4468 2.40542 25.5952 1.93518 25.7375 1.50419L25.7883 1.35103C25.9082 0.989313 26.0213 0.648371 26.0943 0.334366C26.1174 0.235854 26.1943 0.0057373 26.4189 0.0057373C26.5727 0.0057373 26.748 0.12118 26.9103 0.329748C27.0664 0.532158 27.2394 0.744574 27.4224 0.968533C27.9184 1.5773 28.4798 2.26688 28.9904 3.09192C29.8356 4.45569 30.3024 5.81099 30.4177 7.23479C30.5423 8.77403 30.2739 10.3202 29.621 11.831C29.3919 12.3566 29.1189 12.8715 28.8105 13.361C28.6144 13.6704 28.406 13.9659 28.1922 14.2391L28.1591 14.2814L28.153 14.3607C28.1353 14.5885 28.1161 14.824 28.093 15.0557C28.0699 15.285 28.0461 15.5167 28.0199 15.7453L28.0122 15.8168L28.0584 15.8746C28.5782 16.5287 29.0896 17.2091 29.5741 17.8933L29.874 18.3397L30.3108 19.0138L30.4546 19.244L30.7353 19.695L31.1475 20.383L31.5474 21.078L31.935 21.7799L32.3103 22.4879L32.6732 23.2021L33.0239 23.9217L33.3623 24.6467L33.6368 25.2609L33.8045 24.8152C33.8583 24.6721 33.9114 24.5305 33.9629 24.3912L33.9806 24.3435L33.9698 24.2942C33.8629 23.7947 33.666 22.7457 33.5484 21.3419C33.4807 20.4915 33.4561 19.7742 33.4707 19.0831C33.4815 18.2242 33.5553 17.3745 33.6906 16.5564C33.7229 16.3648 33.7599 16.1739 33.8006 15.9885C33.8475 15.7737 33.8875 15.6098 33.9283 15.4559C34.0129 15.1373 34.1151 14.8194 34.2413 14.4831C34.4435 13.9405 34.6981 13.4125 35.0187 12.8692C35.3048 12.3843 35.6032 11.9626 35.86 11.6062L35.9723 11.4508C36.0684 11.3176 36.1592 11.1914 36.2461 11.0683C36.3814 10.8751 36.4845 10.7181 36.5706 10.5734C36.6944 10.3648 36.8351 10.3341 36.9074 10.3341C36.9336 10.3341 36.9605 10.3379 36.9866 10.3448C37.0612 10.3656 37.1327 10.4164 37.1943 10.4903C37.2566 10.5649 37.3096 10.6627 37.3535 10.7804C37.4165 10.9513 37.488 11.1268 37.5634 11.3122L37.9248 12.205C38.0271 12.4667 38.1302 12.7445 38.2317 13.0323C38.284 13.1786 38.3316 13.3325 38.3762 13.4764C38.4247 13.635 38.4693 13.7904 38.5101 13.9382C38.9176 15.4582 38.9707 16.8735 38.6715 18.265C38.347 19.7796 37.6449 21.2096 36.5844 22.5148C36.213 22.9697 35.8024 23.4038 35.3632 23.8055C35.0841 24.0602 34.798 24.2981 34.512 24.5128L34.4681 24.5459L34.4497 24.5959C34.3566 24.8468 34.2782 25.0561 34.2036 25.2509C34.1221 25.4594 34.039 25.6688 33.956 25.8742L33.929 25.9404L33.9567 26.0066C34.302 26.8301 34.6304 27.6775 34.9318 28.524C35.2294 29.356 35.5101 30.2265 35.7908 31.1831L35.8885 31.5171C35.91 31.5902 35.93 31.6641 35.9492 31.7349L36.0784 32.2059C36.1077 32.3114 36.1376 32.4199 36.1646 32.5284L36.3368 33.201L36.4991 33.8829C36.6621 34.5879 36.8128 35.3113 36.9482 36.0325L37.0335 36.4858L37.3027 36.1017C37.3996 35.9632 37.4934 35.8278 37.5819 35.7L37.6111 35.6577L37.6165 35.533C37.6211 35.4237 37.6265 35.2998 37.6357 35.1605C37.6426 35.0535 37.6511 34.9427 37.6603 34.8319L37.6934 34.464C37.7172 34.1969 37.7549 33.8983 37.7918 33.6151C37.8118 33.4573 37.8341 33.2988 37.8587 33.1425C37.8748 33.0379 37.8925 32.9309 37.911 32.8224L37.941 32.6423C37.9702 32.4691 38.0033 32.2913 38.0386 32.1166L38.0948 31.8465C38.1132 31.7557 38.1332 31.6641 38.1532 31.571C38.1948 31.3824 38.2409 31.1931 38.2886 31.0061L38.2978 30.9707C38.3432 30.7944 38.3901 30.612 38.4431 30.4273C38.5008 30.2249 38.5662 30.0163 38.6239 29.8363C38.6877 29.6346 38.7569 29.4322 38.8284 29.2359C38.8653 29.1351 38.9038 29.0328 38.943 28.9335L38.9592 28.8912C38.9922 28.8065 39.0261 28.7188 39.0622 28.631C39.1453 28.4263 39.2345 28.2216 39.3267 28.023C39.4198 27.8245 39.5044 27.6528 39.5844 27.4981C39.6697 27.3327 39.7605 27.1687 39.8543 27.0102C39.935 26.8717 40.0273 26.7239 40.1357 26.5577C40.228 26.4161 40.3242 26.2752 40.4234 26.139C40.6079 25.8842 40.8094 25.6326 41.0209 25.3925C41.2162 25.1708 41.42 24.9561 41.6276 24.7544C42.0429 24.3504 42.452 24.011 42.8035 23.7255L42.9296 23.6231C43.2433 23.3676 43.5402 23.1259 43.7855 22.8904C43.9231 22.758 44.0393 22.7303 44.1123 22.7303C44.1631 22.7303 44.2092 22.7419 44.253 22.7665C44.3207 22.8042 44.3769 22.8673 44.4199 22.9551C44.463 23.042 44.4899 23.1482 44.4999 23.2729C44.5245 23.54 44.5599 23.8286 44.5983 24.1349C44.6883 24.8576 44.7898 25.6772 44.7898 26.58C44.789 28.1415 44.4707 29.5222 43.8178 30.7998C43.1003 32.2021 42.0383 33.4327 40.6617 34.4586C40.1719 34.8234 39.6536 35.1551 39.123 35.4437C38.7777 35.6315 38.4324 35.8 38.0963 35.9447L38.0448 35.9671L37.9748 36.0686C37.8541 36.2434 37.7295 36.4234 37.6026 36.5997C37.4703 36.7844 37.335 36.9714 37.2004 37.1553L37.1566 37.2154L37.1681 37.287C37.3081 38.1651 37.428 39.0617 37.5257 39.9522L37.6103 40.8149C37.6103 40.8149 37.6841 41.7515 37.6872 41.7846C37.6941 41.8662 37.7003 41.9501 37.7049 42.0347L37.7518 42.8529C37.7564 42.9275 37.761 43.0029 37.7641 43.0784L37.801 44.1181L37.8156 45.1663C37.8172 45.2418 37.8156 45.3172 37.8156 45.3988L37.8095 46.2107C37.8095 46.2977 37.8072 46.3839 37.8041 46.4724L37.7756 47.4267L37.738 48.1679L38.0879 47.86C38.2186 47.7453 38.3486 47.6299 38.4778 47.5145L38.5177 47.4783L38.5316 47.4275C38.6008 47.1812 38.7115 46.7995 38.8815 46.3269C39.0361 45.8613 39.2614 45.2818 39.5513 44.6061C39.6228 44.4429 39.6974 44.2782 39.7743 44.115L39.792 44.0773C39.8627 43.9249 39.9366 43.7679 40.0158 43.6078C40.1857 43.2615 40.3857 42.8975 40.5764 42.5565C40.6794 42.3757 40.7863 42.1948 40.8955 42.0194C40.9993 41.8516 41.1116 41.6807 41.2216 41.5129L41.2431 41.4806C41.4907 41.1081 41.7553 40.7479 42.0306 40.4093C42.2767 40.1015 42.5351 39.8082 42.7996 39.5396C42.8634 39.4742 42.9288 39.4096 42.9942 39.3465C43.0588 39.2834 43.1234 39.221 43.1872 39.1618C43.3133 39.044 43.444 38.9286 43.5748 38.8177C43.8209 38.6099 44.0823 38.4106 44.3507 38.2236C44.5906 38.0558 44.846 37.8919 45.109 37.7372C45.6219 37.4355 46.111 37.1961 46.5301 36.9953L46.6839 36.9214C47.0576 36.7428 47.4106 36.5735 47.7121 36.3996C47.8159 36.3396 47.9128 36.3088 48.0004 36.3088C48.0804 36.3088 48.1489 36.3334 48.205 36.3827C48.2642 36.4342 48.305 36.5081 48.3257 36.6035C48.3473 36.6974 48.348 36.8067 48.3273 36.9299C48.2842 37.2023 48.2488 37.5001 48.2104 37.8157C48.125 38.526 48.0281 39.3318 47.8136 40.1946C47.7282 40.5309 47.6352 40.8426 47.5306 41.1489C47.4829 41.2905 47.4237 41.4452 47.3437 41.6376C47.2745 41.8039 47.2007 41.9693 47.1238 42.1294C47.0438 42.2964 46.9584 42.4627 46.87 42.6227C46.7846 42.7759 46.6862 42.9375 46.5708 43.1153C46.3378 43.4716 46.0994 43.7895 45.8441 44.0858C45.5465 44.4275 45.2235 44.7546 44.8821 45.057C44.796 45.134 44.7145 45.204 44.6329 45.2718C44.5491 45.3403 44.4638 45.4095 44.3784 45.475C44.2115 45.6043 44.0393 45.7305 43.8655 45.8498C43.5379 46.076 43.1926 46.2884 42.8411 46.4816C42.5189 46.6563 42.1813 46.821 41.8383 46.9711C41.2685 47.2189 40.6756 47.4306 40.075 47.5983C39.6866 47.7069 39.3014 47.7969 38.9307 47.8654L38.8753 47.8754L38.8346 47.9116C38.4954 48.214 38.1294 48.5373 37.7487 48.8559L37.6895 48.9059L37.6403 49.5701L37.5411 50.6106L37.4196 51.6489L37.2758 52.6886C37.265 52.7633 37.2527 52.8372 37.2396 52.9164L37.1097 53.7214C37.0835 53.87 37.0558 54.0201 37.0289 54.1655L36.9213 54.7497C36.9074 54.8235 36.892 54.8967 36.8767 54.9713L36.7106 55.7756C36.679 55.9195 36.6452 56.0649 36.6129 56.2058L36.4775 56.7961C36.4599 56.87 36.4414 56.9431 36.4229 57.0162L36.223 57.8074L35.9446 58.8171L35.6816 59.6952L36.0884 59.4851C36.2507 59.4012 36.416 59.3151 36.5837 59.2273L36.6321 59.2019L36.7436 59.0126C36.7898 58.9326 36.839 58.8487 36.8897 58.7655C37.0089 58.5685 37.1366 58.3669 37.2735 58.1622C37.415 57.9467 37.5757 57.7019 37.758 57.4472L37.8979 57.2525L37.9702 57.154L38.0425 57.0531C38.144 56.9131 38.2478 56.7738 38.3516 56.6391C38.4624 56.4959 38.5762 56.352 38.6923 56.2104C38.8184 56.0519 38.9361 55.9079 39.053 55.7702C39.1806 55.6193 39.3129 55.4685 39.4459 55.3223L39.5244 55.2361C39.632 55.1168 39.7435 54.9936 39.8612 54.8705C40.1173 54.6004 40.418 54.3048 40.7809 53.9677C40.9447 53.8169 41.1147 53.6676 41.2847 53.5252C41.3723 53.4521 41.4615 53.379 41.5492 53.3082C41.6522 53.225 41.7376 53.1565 41.8183 53.0942C42.1336 52.8495 42.4612 52.6201 42.7919 52.4123C42.9757 52.2976 43.1264 52.2076 43.2672 52.1276C43.4202 52.0406 43.5771 51.9559 43.7347 51.8767C44.2846 51.5973 44.869 51.361 45.5204 51.1548C46.1548 50.9539 46.7577 50.8184 47.2937 50.6976C47.7059 50.6045 48.0958 50.5175 48.4357 50.4136C48.5118 50.3898 48.5826 50.3782 48.6472 50.3782C48.7356 50.3782 48.8571 50.4013 48.9348 50.5121C49.0248 50.6414 49.0209 50.8354 48.9233 51.0732C48.8279 51.3033 48.7356 51.555 48.6664 51.7466L48.3819 52.5016C48.1727 53.065 47.9243 53.6299 47.6444 54.1809C46.9031 55.5978 45.9564 56.7083 44.7506 57.5742C44.3722 57.8428 43.9708 58.0906 43.5586 58.3099C43.4394 58.373 43.3471 58.4207 43.2587 58.4631C43.1595 58.5116 43.0572 58.5593 42.9565 58.6047C42.7604 58.6932 42.5574 58.7771 42.3551 58.8548C41.9606 59.0064 41.5653 59.135 41.1808 59.2381C40.8171 59.3351 40.4418 59.4182 40.065 59.4851C39.4352 59.596 38.793 59.6645 38.1563 59.6868C37.9825 59.6929 37.8072 59.696 37.6349 59.696C37.4011 59.696 37.1712 59.6899 36.9513 59.6783L36.8951 59.6752L36.8459 59.7014C36.6306 59.8145 36.4022 59.9338 36.1746 60.0493C35.96 60.1562 35.7431 60.2632 35.5286 60.3679L35.4563 60.4033L35.4325 60.4764C34.3128 63.8781 32.8232 67.0821 31.0068 69.9997L30.7761 70.3699L31.219 70.2714C31.4051 70.2298 31.5851 70.189 31.7627 70.1475L31.8196 70.1344L31.8589 70.0944C32.0734 69.875 32.8732 69.0823 34.1582 68.071C34.3958 67.8848 34.7134 67.6393 35.0618 67.3953L35.3048 67.2244C35.3871 67.1667 35.4709 67.109 35.554 67.052C35.7255 66.9358 35.9016 66.8212 36.0769 66.7111L36.3468 66.5426C36.4383 66.4856 36.5306 66.4294 36.6229 66.3748C36.8136 66.2617 37.0074 66.1516 37.1989 66.0485L37.285 66.0031C37.4427 65.9192 37.6203 65.8237 37.7979 65.7352C38.0056 65.6313 38.2163 65.5321 38.4262 65.4397C38.5208 65.3981 38.6169 65.3566 38.7123 65.3173C38.8161 65.2735 38.9076 65.2357 38.9915 65.2027C39.1722 65.1311 39.3567 65.0634 39.5398 65.001C39.8704 64.8879 40.215 64.7886 40.5933 64.697C41.2085 64.5477 41.8345 64.4515 42.5074 64.4022C42.7819 64.3822 43.0634 64.3699 43.3664 64.363C43.5117 64.3599 43.6655 64.3591 43.837 64.3591C43.9454 64.3591 44.0516 64.3591 44.1561 64.3607L44.3653 64.3622C44.5099 64.3638 44.6506 64.3645 44.7867 64.3645C45.0943 64.3645 45.3204 64.3584 45.5219 64.3445C45.5442 64.343 45.5657 64.3422 45.5873 64.3422C45.8234 64.3422 45.9249 64.44 45.9695 64.5223C46.0156 64.6085 46.0602 64.8001 45.8372 65.108C45.778 65.1896 45.7149 65.2796 45.6319 65.3997C45.5673 65.4905 45.4988 65.5898 45.415 65.7121L44.9521 66.3917C44.7937 66.6188 44.6199 66.8573 44.4207 67.1206C44.3146 67.2599 44.2184 67.383 44.1269 67.4969C44.02 67.6262 43.9116 67.7524 43.8047 67.8732C43.6901 68.0033 43.5732 68.1295 43.4594 68.2488C43.3994 68.3119 43.3379 68.3743 43.2772 68.4358C43.2141 68.4989 43.148 68.5605 43.0841 68.6205C42.8104 68.8761 42.5258 69.1162 42.2405 69.3324C41.926 69.5656 41.5946 69.7827 41.2547 69.9774C41.1516 70.0359 41.067 70.0828 40.9863 70.1259C40.8932 70.1736 40.7994 70.2214 40.7056 70.266C40.5126 70.3583 40.3142 70.4461 40.1165 70.5254C38.84 71.0356 37.4527 71.295 35.9931 71.295C35.6885 71.295 35.3779 71.2834 35.0695 71.2611C34.4374 71.2149 33.7975 71.1218 33.1685 70.9864C32.7686 70.8994 32.3764 70.7963 32.0042 70.6785L31.9504 70.6616L31.8958 70.6747C31.6481 70.7324 31.399 70.7886 31.1529 70.8424L30.9537 70.8855L30.7461 70.9279L30.3624 71.0041L30.3185 71.0702C28.3152 74.0849 25.9667 76.7608 23.339 79.0251L23.0052 79.3121L23.4558 79.3437C23.6412 79.3568 23.828 79.3675 24.0157 79.3791L24.0726 79.3821L24.1226 79.356C24.1695 79.3314 24.221 79.3044 24.2748 79.2767L24.3994 79.2136L24.5348 79.1436C24.7416 79.0366 24.9608 78.9288 25.1861 78.8242L25.5706 78.6441C25.7091 78.5802 25.8513 78.5163 25.9936 78.454C26.0605 78.4255 26.2489 78.3447 26.2489 78.3447C26.4573 78.2547 26.6926 78.1531 26.9395 78.0561L27.1125 77.9884C27.3986 77.8768 27.6939 77.7613 28.0084 77.6505L28.1153 77.6136C28.4575 77.495 28.812 77.3734 29.185 77.2626C30.1101 76.984 30.9729 76.7824 31.8204 76.6477C32.2833 76.5769 32.6656 76.533 33.0231 76.5084C33.2108 76.4953 33.4007 76.4861 33.5884 76.4822C33.6791 76.4799 33.7752 76.4791 33.8737 76.4791C33.9598 76.4791 34.0452 76.4799 34.129 76.4815C34.7673 76.493 35.4009 76.5569 36.0654 76.6785C36.6736 76.7885 37.2143 76.9286 37.6734 77.051L37.8487 77.0979C38.2601 77.208 38.6485 77.3119 39.0022 77.3765C39.2698 77.4242 39.3575 77.5512 39.3844 77.6497C39.4113 77.7482 39.409 77.9514 39.0945 78.2069C39.0076 78.277 38.9153 78.3547 38.8123 78.4432L38.5124 78.6972L37.8664 79.2498C37.6557 79.426 37.4173 79.6169 37.1381 79.8324L37.1197 79.8462C37.0059 79.9332 36.8767 80.0317 36.7421 80.1272C36.5975 80.2287 36.4552 80.3249 36.3184 80.415C36.0769 80.5728 35.7539 80.7775 35.3971 80.963C35.231 81.0507 35.0626 81.1346 34.8949 81.2131C34.7411 81.2847 34.5581 81.3678 34.3651 81.4424C33.9836 81.5917 33.5968 81.7179 33.2169 81.8172C32.7986 81.9219 32.371 82.0004 31.9473 82.0504C31.5566 82.0935 31.1614 82.1158 30.7722 82.1158C30.237 82.1158 29.6964 82.0743 29.1658 81.9919C28.4044 81.878 27.6247 81.6741 26.8487 81.3855C26.5188 81.2623 26.2005 81.1292 25.9013 80.9884C25.6329 80.8629 25.3661 80.7259 25.1061 80.5828C24.7486 80.385 24.4056 80.1741 24.088 79.9563L24.0418 79.9247L23.9849 79.9217C23.8696 79.9147 23.7542 79.9086 23.6396 79.9001L23.2221 79.867C22.9821 79.847 22.7399 79.8247 22.5007 79.8016L22.4184 79.7939L22.3554 79.8439C21.6294 80.4219 20.8881 80.9714 20.1537 81.4755C19.3662 82.0081 18.5518 82.5153 17.7344 82.9824C16.9269 83.4381 16.071 83.8752 15.1936 84.2816L14.5384 84.5732C14.4645 84.6071 14.3907 84.6371 14.3153 84.6687C14.2792 84.6833 13.7601 84.8973 13.7601 84.8973C13.6901 84.9265 13.6179 84.9565 13.5448 84.9842L12.6766 85.3136L13.0972 85.5006C13.2618 85.573 13.4287 85.6453 13.5956 85.7161L13.6471 85.7385L14.1677 85.6669C14.4015 85.6361 14.646 85.6084 14.8983 85.5853C15.2143 85.5491 15.5073 85.5222 15.7903 85.5022C15.8741 85.4968 15.9587 85.4906 16.0526 85.4829C16.1302 85.4768 16.2094 85.4699 16.2902 85.4645C16.4686 85.4522 16.6501 85.4414 16.8262 85.4337C16.9154 85.4306 17.0046 85.426 17.0946 85.4214H17.1061C17.1992 85.416 17.293 85.4114 17.3891 85.4075C17.5852 85.3998 17.7851 85.3952 17.982 85.3929C18.0697 85.3929 18.1573 85.3914 18.2458 85.389H18.2865C18.3888 85.3867 18.4926 85.386 18.5972 85.386C18.8095 85.386 19.024 85.3898 19.2378 85.3967C19.6854 85.4044 20.1329 85.4268 20.5713 85.4637C21.0158 85.4953 21.4841 85.5476 21.9655 85.6192C22.3738 85.6777 22.7783 85.7539 23.1675 85.8462C23.3897 85.9001 23.5597 85.9432 23.7173 85.987C23.8926 86.0355 24.0672 86.0886 24.2364 86.1448C24.5571 86.2503 24.8778 86.3711 25.1907 86.505C25.4714 86.6235 25.756 86.7567 26.0359 86.9006C26.5742 87.1769 27.0564 87.4716 27.4662 87.7264L27.5662 87.7887C27.9623 88.035 28.3045 88.2482 28.6405 88.4183C28.7413 88.4691 28.9704 88.6138 28.9135 88.8477C28.8743 89.0086 28.712 89.1525 28.4552 89.2518C28.2053 89.3511 27.9446 89.4634 27.7216 89.5612L27.5293 89.6458L27.3678 89.7143L26.9018 89.909C26.7418 89.9752 26.5973 90.0337 26.4611 90.0884C26.3935 90.1161 26.3204 90.1438 26.2297 90.1769L25.9936 90.2623C25.8275 90.3216 25.6629 90.3777 25.5068 90.4285L25.4845 90.4355C25.3292 90.4855 25.1677 90.5378 24.9946 90.584C24.008 90.8641 23.0267 91.0057 22.0793 91.0057C21.4426 91.0057 20.8074 90.9419 20.1898 90.8156C19.74 90.7271 19.2801 90.5978 18.7825 90.4193C18.5618 90.34 18.3465 90.2538 18.142 90.1646C17.9397 90.0745 17.7375 89.9768 17.5406 89.8744C17.1684 89.6805 16.8062 89.4657 16.4655 89.2356C16.1525 89.0224 15.8449 88.7892 15.5512 88.5445C15.292 88.3282 15.0382 88.0966 14.7968 87.8572C14.5945 87.6564 14.3907 87.4386 14.1915 87.21C13.9255 86.9044 13.6786 86.5912 13.4579 86.2795L13.4264 86.2356L13.3748 86.2141C12.9034 86.0155 12.4474 85.8 12.0252 85.5968L11.9506 85.5614L11.8722 85.5876C11.7899 85.6145 11.7076 85.6415 11.6253 85.6684C9.80124 86.2587 7.91178 86.6874 6.0077 86.9437C4.51658 87.1438 2.97702 87.2077 1.48898 87.2685C1.03526 87.2869 0.581539 87.3054 0.12244 87.3285C0.0532265 87.3285 -0.00367737 87.2708 -0.00367737 87.2007V87.1376C-0.00367737 86.899 0.131668 86.722 0.376984 86.6389L0.380062 86.632Z" fill="url(#paint0_linear_571_22477)"/>
</g>
<defs>
<linearGradient id="paint0_linear_571_22477" x1="33.5002" y1="50.5001" x2="7.50019" y2="46.0001" gradientUnits="userSpaceOnUse">
<stop stop-color="#D7D7E2"/>
<stop offset="1" stop-color="#CBCBD9"/>
</linearGradient>
<clipPath id="clip0_571_22477">
<rect width="49" height="91" fill="white" transform="matrix(-1 0 0 1 49 0)"/>
</clipPath>
</defs>
</svg>
