<svg width="28" height="28" viewBox="0 0 28 28" fill="none" xmlns="http://www.w3.org/2000/svg">
<path d="M14 28C21.732 28 28 21.732 28 14C28 6.26801 21.732 0 14 0C6.26801 0 0 6.26801 0 14C0 21.732 6.26801 28 14 28Z" fill="#F9DB00"/>
<path d="M14.0022 7.15625C10.137 7.15625 6.99609 9.83451 6.99609 13.1336C7.06305 15.258 8.28044 17.1815 10.1796 18.1432L9.52218 21.0832L12.6813 19.0076C13.1196 19.0806 13.5578 19.1171 14.0022 19.1171C17.8674 19.1171 21.0083 16.4389 21.0083 13.1397C21.0083 9.8406 17.8735 7.16234 14.0022 7.16234" fill="#3E1918"/>
</svg>
