<svg width="28" height="28" viewBox="0 0 28 28" fill="none" xmlns="http://www.w3.org/2000/svg">
<g clip-path="url(#clip0_426_23785)">
<path d="M13.0323 0.0514347L13.1253 0.0407823C14.0467 -0.0559531 15.0733 0.0275387 15.986 0.166884C18.4167 0.537991 20.8202 1.46504 22.7449 3.01136C25.7035 5.388 27.5446 8.79159 27.9294 12.5418C28.3046 16.1985 27.1749 20.0592 24.8262 22.8997C22.3152 25.9365 18.9753 27.5845 15.0771 27.9668C14.1438 28.0347 13.2131 27.991 12.2836 27.8902C8.7997 27.5131 5.28739 25.5308 3.10936 22.811C1.14545 20.3578 0.0116737 17.3406 0.00240183 14.199C0.000953093 13.7493 -0.0120855 13.2915 0.0420972 12.8444C0.397327 9.92334 1.41926 7.21331 3.35246 4.94521C5.80372 2.06963 9.26011 0.349702 13.0323 0.0514347Z" fill="#F3B017"/>
<path d="M12.3167 5.59966L15.623 5.59131L15.6288 6.92171C15.8719 7.05673 16.4571 6.9934 16.7747 7.07919L16.8735 7.10712C17.661 7.32362 18.364 7.67457 19.0605 8.09318L18.0006 10.9987C17.0404 10.4209 15.7415 9.94066 14.6048 9.99478C14.1945 10.0144 13.6958 10.0935 13.4154 10.4238C13.2931 10.5677 13.2856 10.6967 13.3061 10.8807C13.3316 11.1081 13.4895 11.2898 13.6672 11.4211C14.0293 11.6888 14.5022 11.8572 14.9142 12.0389C15.7571 12.4109 16.6626 12.7834 17.4229 13.3045C18.5033 14.0453 19.3294 15.0126 19.5519 16.3255C19.722 17.3291 19.4114 18.4761 18.8192 19.2938C18.0693 20.3293 16.8999 20.9878 15.6467 21.1951L15.4966 23.0921L13.5991 23.0831L12.2552 23.0765L12.259 21.504C10.5848 21.21 9.26359 20.3308 8.02637 19.2238L9.98245 16.6059C10.4365 16.9692 10.8413 17.3432 11.355 17.6271C12.3242 18.1629 13.6243 18.5038 14.7166 18.1663C15.0716 18.0569 15.4277 17.8373 15.5838 17.4869C15.6676 17.2995 15.6731 17.0049 15.5975 16.8135C15.4955 16.5547 15.29 16.3612 15.0739 16.1945C14.1415 15.4759 12.8857 15.2176 11.8134 14.7674C10.6715 14.2877 9.63736 13.57 9.17522 12.3809C8.79999 11.4153 8.80724 10.31 9.2433 9.36572C9.84047 8.07274 11.067 7.49377 12.3398 7.02823L12.3167 5.59966Z" fill="#FEFEFE"/>
</g>
<defs>
<clipPath id="clip0_426_23785">
<rect width="28" height="28" fill="white" transform="translate(0 -0.000976562)"/>
</clipPath>
</defs>
</svg>
