<svg width="28" height="19" viewBox="0 0 28 19" fill="none" xmlns="http://www.w3.org/2000/svg">
<g clip-path="url(#clip0_426_23769)">
<path fill-rule="evenodd" clip-rule="evenodd" d="M4.82128 0H26.4987C27.3199 0 28.0002 0.65244 28.0002 1.46506V13.6319C28.0002 14.4332 27.3199 15.0971 26.4987 15.0971H4.82128C3.98847 15.0971 3.31982 14.4332 3.31982 13.6319V1.46506C3.31982 0.65244 3.98847 0 4.82128 0Z" fill="#FBAA10"/>
<path d="M28.0002 2.88428H3.31982V5.96318H28.0002V2.88428Z" fill="#40494C"/>
<path fill-rule="evenodd" clip-rule="evenodd" d="M1.48978 3.90283H23.1789C24 3.90283 24.6804 4.56675 24.6804 5.36789V17.5348C24.6804 18.3474 24 18.9998 23.1789 18.9998H1.48978C0.66865 18.9998 0 18.3474 0 17.5348V5.36789C0 4.56675 0.66865 3.90283 1.48978 3.90283Z" fill="#90C2C2"/>
<path fill-rule="evenodd" clip-rule="evenodd" d="M1.48978 3.90283H1.7009C2.74492 7.09625 7.51905 17.7752 24.6804 17.3517V17.5348C24.6804 18.3474 24 18.9998 23.1789 18.9998H1.48978C0.66865 18.9998 0 18.3474 0 17.5348V5.36789C0 4.56675 0.66865 3.90283 1.48978 3.90283Z" fill="#7FB1B1"/>
<path fill-rule="evenodd" clip-rule="evenodd" d="M16.4107 5.73438H21.7714C22.3696 5.73438 22.8505 6.21508 22.8505 6.78734C22.8505 7.37109 22.3695 7.84039 21.7714 7.84039H16.4107C15.8124 7.84039 15.3315 7.37109 15.3315 6.78734C15.3315 6.21508 15.8125 5.73438 16.4107 5.73438Z" fill="#FEFEFE"/>
<path fill-rule="evenodd" clip-rule="evenodd" d="M1.95895 8.19531H5.94724C6.19356 8.19531 6.393 8.38992 6.393 8.63027V11.2857C6.393 11.526 6.19365 11.7206 5.94724 11.7206H1.95895C1.71263 11.7206 1.51318 11.5261 1.51318 11.2857V8.63027C1.51318 8.38992 1.71263 8.19531 1.95895 8.19531Z" fill="#FCC900"/>
<path d="M3.33136 11.7206V10.8621C3.33136 10.8507 3.3196 10.8393 3.30793 10.8393C3.23761 10.7591 3.17888 10.6676 3.14368 10.5646H1.51318V10.2326H3.12024V9.68324H1.51318V9.35132H3.14368C3.17888 9.24836 3.23752 9.14532 3.30793 9.07662C3.3196 9.06523 3.33136 9.06523 3.33136 9.05376V8.19531H3.67153V8.89349H4.24634V8.19531H4.57482V9.05376C4.5865 9.06523 4.59826 9.06523 4.59826 9.07662C4.68034 9.14524 4.73898 9.24828 4.76251 9.35132H6.393V9.68324H4.78603V10.2326H6.393V10.5646H4.76251C4.73907 10.6676 4.68043 10.7591 4.59826 10.8393C4.58659 10.8393 4.58659 10.8506 4.57482 10.8621V11.7206H4.24634V11.0109C4.21122 11.0224 4.17602 11.0224 4.15249 11.0224H3.76537C3.73025 11.0224 3.70673 11.0224 3.67153 11.0109V11.7206H3.33136ZM4.15241 9.22532H3.76528C3.6832 9.22532 3.60112 9.24819 3.55416 9.30541C3.49552 9.36263 3.46032 9.43133 3.46032 9.51142V10.4041C3.46032 10.4842 3.49543 10.5529 3.55416 10.6101C3.60112 10.6559 3.68312 10.6902 3.76528 10.6902H4.15241C4.23449 10.6902 4.30489 10.6559 4.36353 10.6101C4.41041 10.5529 4.44561 10.4842 4.44561 10.4041V9.51142C4.44561 9.43133 4.41041 9.36263 4.36353 9.30541C4.30489 9.25967 4.23449 9.22532 4.15241 9.22532Z" fill="#FBAA10"/>
<path fill-rule="evenodd" clip-rule="evenodd" d="M7.63624 12.8076H11.2257C11.3899 12.8076 11.5307 12.9449 11.5307 13.1052V13.8148C11.5307 13.9751 11.39 14.1124 11.2257 14.1124H7.63624C7.472 14.1124 7.33128 13.9751 7.33128 13.8148V13.1052C7.33128 12.945 7.472 12.8076 7.63624 12.8076ZM1.8181 12.8076H5.41926C5.5835 12.8076 5.71246 12.9449 5.71246 13.1052V13.8148C5.71246 13.9751 5.5835 14.1124 5.41926 14.1124H1.8181C1.65394 14.1124 1.5249 13.9751 1.5249 13.8148V13.1052C1.5249 12.945 1.65394 12.8076 1.8181 12.8076ZM13.4427 12.8076H17.0439C17.2081 12.8076 17.3372 12.9449 17.3372 13.1052V13.8148C17.3372 13.9751 17.2081 14.1124 17.0439 14.1124H13.4427C13.2785 14.1124 13.1378 13.9751 13.1378 13.8148V13.1052C13.1378 12.945 13.2785 12.8076 13.4427 12.8076ZM19.2492 12.8076H22.8503C23.0146 12.8076 23.1553 12.9449 23.1553 13.1052V13.8148C23.1553 13.9751 23.0146 14.1124 22.8503 14.1124H19.2492C19.085 14.1124 18.956 13.9751 18.956 13.8148V13.1052C18.956 12.945 19.085 12.8076 19.2492 12.8076Z" fill="#6EA0A0"/>
<path fill-rule="evenodd" clip-rule="evenodd" d="M7.63624 12.8076H8.16409C8.76234 13.2654 9.41922 13.7003 10.1231 14.1124H7.63624C7.472 14.1124 7.33128 13.9751 7.33128 13.8148V13.1052C7.33128 12.945 7.472 12.8076 7.63624 12.8076ZM1.8181 12.8076H5.41926C5.5835 12.8076 5.71246 12.9449 5.71246 13.1052V13.8148C5.71246 13.9751 5.5835 14.1124 5.41926 14.1124H1.8181C1.65394 14.1124 1.5249 13.9751 1.5249 13.8148V13.1052C1.5249 12.945 1.65394 12.8076 1.8181 12.8076Z" fill="#5D8F8F"/>
<path fill-rule="evenodd" clip-rule="evenodd" d="M2.93245 15.2114H10.9677C11.1553 15.2114 11.2961 15.3602 11.2961 15.5319V16.2301C11.2961 16.4018 11.1553 16.5392 10.9677 16.5392H2.93245C2.75653 16.5392 2.61572 16.4019 2.61572 16.2301V15.5319C2.61572 15.3602 2.75653 15.2114 2.93245 15.2114Z" fill="#EBEBEB"/>
</g>
<defs>
<clipPath id="clip0_426_23769">
<rect width="28" height="19" fill="white"/>
</clipPath>
</defs>
</svg>
