<svg width="392" height="188" viewBox="0 0 392 188" fill="none" xmlns="http://www.w3.org/2000/svg">
<path d="M289.484 0H21.2898C9.53178 0 0 9.49214 0 21.2013V166.799C0 178.508 9.53178 188 21.2898 188H289.484C301.242 188 310.774 178.508 310.774 166.799V21.2013C310.774 9.49214 301.242 0 289.484 0Z" fill="#F8F8F8"/>
<path d="M281.815 11.8105H28.9591C20.0249 11.8105 12.7822 19.0231 12.7822 27.9202V160.075C12.7822 168.972 20.0249 176.185 28.9591 176.185H281.815C290.749 176.185 297.992 168.972 297.992 160.075V27.9202C297.992 19.0231 290.749 11.8105 281.815 11.8105Z" stroke="#0077FF" stroke-width="3" stroke-linecap="round" stroke-linejoin="round" stroke-dasharray="12 12"/>
<path d="M374.522 0H326.74C317.087 0 309.262 7.79287 309.262 17.4059V170.594C309.262 180.207 317.087 188 326.74 188H374.522C384.175 188 392 180.207 392 170.594V17.4059C392 7.79287 384.175 0 374.522 0Z" fill="#0077FF"/>
<path d="M374.685 24.4414H325.757V32.6338H374.685V24.4414Z" fill="#F6F6F6"/>
<path d="M374.685 53.6191H325.757V61.8115H374.685V53.6191Z" fill="#F6F6F6"/>
<path d="M374.685 42.8398H325.757V47.7263H374.685V42.8398Z" fill="#F6F6F6"/>
<path d="M374.685 48.873H325.757V51.3163H374.685V48.873Z" fill="#F6F6F6"/>
<path d="M374.685 35.2207H325.757V38.0929H374.685V35.2207Z" fill="#F6F6F6"/>
<path d="M374.685 39.3438H325.757V40.7799H374.685V39.3438Z" fill="#F6F6F6"/>
<path d="M374.685 85.418H325.757V93.6103H374.685V85.418Z" fill="#F6F6F6"/>
<path d="M374.685 74.6406H325.757V79.5271H374.685V74.6406Z" fill="#F6F6F6"/>
<path d="M374.685 94.9512H325.757V99.8377H374.685V94.9512Z" fill="#F6F6F6"/>
<path d="M374.685 80.6738H325.757V83.1171H374.685V80.6738Z" fill="#F6F6F6"/>
<path d="M374.685 67.0215H325.757V69.8984H374.685V67.0215Z" fill="#F6F6F6"/>
<path d="M374.685 71.1426H325.757V72.5787H374.685V71.1426Z" fill="#F6F6F6"/>
<path d="M374.685 101.18H325.757V102.616H374.685V101.18Z" fill="#F6F6F6"/>
<path d="M374.685 103.959H325.757V105.395H374.685V103.959Z" fill="#F6F6F6"/>
<path d="M374.685 106.736H325.757V108.172H374.685V106.736Z" fill="#F6F6F6"/>
<path d="M374.685 114.557H325.757V122.749H374.685V114.557Z" fill="#F6F6F6"/>
<path d="M374.685 109.816H325.757V112.26H374.685V109.816Z" fill="#F6F6F6"/>
<path d="M374.685 146.361H325.757V154.554H374.685V146.361Z" fill="#F6F6F6"/>
<path d="M374.685 135.582H325.757V140.469H374.685V135.582Z" fill="#F6F6F6"/>
<path d="M374.685 155.891H325.757V160.777H374.685V155.891Z" fill="#F6F6F6"/>
<path d="M374.685 141.615H325.757V144.058H374.685V141.615Z" fill="#F6F6F6"/>
<path d="M374.685 127.963H325.757V130.835H374.685V127.963Z" fill="#F6F6F6"/>
<path d="M374.685 132.084H325.757V133.52H374.685V132.084Z" fill="#F6F6F6"/>
<path d="M374.685 162.121H325.757V163.557H374.685V162.121Z" fill="#F6F6F6"/>
<path d="M374.685 24.4414H325.757V32.6338H374.685V24.4414Z" fill="#F6F6F6"/>
<path d="M374.685 53.6191H325.757V61.8115H374.685V53.6191Z" fill="#F6F6F6"/>
<path d="M374.685 42.8398H325.757V47.7263H374.685V42.8398Z" fill="#F6F6F6"/>
<path d="M374.685 48.873H325.757V51.3163H374.685V48.873Z" fill="#F6F6F6"/>
<path d="M374.685 35.2207H325.757V38.0929H374.685V35.2207Z" fill="#F6F6F6"/>
<path d="M374.685 39.3438H325.757V40.7799H374.685V39.3438Z" fill="#F6F6F6"/>
<path d="M374.685 85.418H325.757V93.6103H374.685V85.418Z" fill="#F6F6F6"/>
<path d="M374.685 74.6406H325.757V79.5271H374.685V74.6406Z" fill="#F6F6F6"/>
<path d="M374.685 94.9512H325.757V99.8377H374.685V94.9512Z" fill="#F6F6F6"/>
<path d="M374.685 80.6738H325.757V83.1171H374.685V80.6738Z" fill="#F6F6F6"/>
<path d="M374.685 67.0215H325.757V69.8984H374.685V67.0215Z" fill="#F6F6F6"/>
<path d="M374.685 71.1426H325.757V72.5787H374.685V71.1426Z" fill="#F6F6F6"/>
<path d="M374.685 101.18H325.757V102.616H374.685V101.18Z" fill="#F6F6F6"/>
<path d="M374.685 103.959H325.757V105.395H374.685V103.959Z" fill="#F6F6F6"/>
<path d="M374.685 106.736H325.757V108.172H374.685V106.736Z" fill="#F6F6F6"/>
<path d="M374.685 114.557H325.757V122.749H374.685V114.557Z" fill="#F6F6F6"/>
<path d="M374.685 109.816H325.757V112.26H374.685V109.816Z" fill="#F6F6F6"/>
<path d="M374.685 146.361H325.757V154.554H374.685V146.361Z" fill="#F6F6F6"/>
<path d="M374.685 135.582H325.757V140.469H374.685V135.582Z" fill="#F6F6F6"/>
<path d="M374.685 155.891H325.757V160.777H374.685V155.891Z" fill="#F6F6F6"/>
<path d="M374.685 141.615H325.757V144.058H374.685V141.615Z" fill="#F6F6F6"/>
<path d="M374.685 127.963H325.757V130.835H374.685V127.963Z" fill="#F6F6F6"/>
<path d="M374.685 132.084H325.757V133.52H374.685V132.084Z" fill="#F6F6F6"/>
<path d="M374.685 162.121H325.757V163.557H374.685V162.121Z" fill="#F6F6F6"/>
</svg>
